<?xml version="1.0" encoding="UTF-8"?>
<svg xmlns="http://www.w3.org/2000/svg" version="1.1" xmlns:xlink="http://www.w3.org/1999/xlink" viewBox="0 0 283.5 283.5">
  <defs>
    <style>
      .cls-1 {
        fill: #ffcb5a;
      }

      .cls-2 {
        fill: #f7f0e5;
      }

      .cls-3 {
        fill: #50c7be;
      }

      .cls-4 {
        fill: none;
      }

      .cls-5 {
        fill: #373b38;
      }

      .cls-6 {
        fill: #b44935;
      }

      .cls-7 {
        clip-path: url(#clippath);
      }
    </style>
    <clipPath id="clippath">
      <rect class="cls-4" width="283.5" height="283.5"/>
    </clipPath>
  </defs>
  <!-- Generator: Adobe Illustrator 28.6.0, SVG Export Plug-In . SVG Version: 1.2.0 Build 709)  -->
  <g>
    <g id="Layer_1">
      <g class="cls-7">
        <path class="cls-1" d="M210.5,56.1c-28-22.1-66.4-30.8-99-15.5-35.7,12.9-58.9,36-70.3,74.4-5.2,13.5-6.4,29.6-2.6,43.8,4.3,21.2,10.2,42.5,22.8,60.3,4.4,5.9,11.2,9.7,17,13.7,11.7,7.1,23.9,13.3,37.1,17.8,20,6.2,42.1,4.7,61.9-1.9,30-10.4,59.9-45,72.2-75.5,12.1-29.6,4.9-58.9-11.8-84.4-6.3-12.5-16.2-23.9-27.3-32.7"/>
        <path class="cls-3" d="M225.9,57.4c-25.2-22-61.7-35.3-95-28.6-21.2,5.5-44.5,14.1-62.8,27.4-17.9,13.4-31.7,34.3-38.3,55.1-5.9,15.3-7.1,28.1-3.1,44.1,4.6,22.3,11.6,45.9,25,64.2,5,5.6,12.4,7.6,18.7,11.5,26.9,15.4,55.4,28.3,87.2,21.6,15.1-2.5,30.5-6.4,42.5-14.5,35.3-25.3,72.7-66,66.1-112.5-2.9-18.3-13.5-36.1-25.4-50.8-4.4-6.3-9.3-12.2-14.9-17.5M210.2,216.1c-31.4,29.8-53.8,20.7-89.4,18.2-35.6-2.5-53-11.6-68.7-51.3-15.7-39.7-1.7-84.4,10.8-102.6s47.7-49.5,89.4-43c21.5,3.3,32.3,5.8,49.7,17.4,17.4,11.6,43,29.8,47.2,63.7,4.1,33.9-7.4,67.9-38.9,97.7"/>
        <path class="cls-5" d="M90.8,148.3c-.4-4.8,0-9.6,1-14.3.2-.9-.3-1.8-1.2-2-.9-.2-1.9-.5-2.8-.7-1.6-.2-9-2.7-15.9-5.7-1.1-.5-2.3.2-2.4,1.4-.5,6.6-.4,14.2.4,21.9,0,.9.9,1.5,1.9,1.5,7.9.3,11.5-.5,17.2-.2,1,0,1.9-.8,1.8-1.9"/>
        <path class="cls-5" d="M107.5,104.7c.8.7,1.7,1,2.5.4,2.2-1.7,4.6-3.2,7.1-4.5,1.8-.9,3.7-1.6,5.7-2.2,1-.3,1.5-1.3,1.2-2.2-.2-.6-.4-1.2-.6-1.7-.9-1.7-3.9-12.3-5-20.9-.1-1.1-1.4-1.8-2.5-1.3-8.3,4.1-15.4,8.4-21.4,12.9-.8.6-.7,1.7-.1,2.6,2.7,4.7,7.1,11.5,13.2,16.9"/>
        <path class="cls-5" d="M135.8,218.6c1.2-7.5,2.6-14.1,2.4-23.5,0-1-.5-1.9-1.5-2-4.5-.4-9.1-1.4-13.4-3-.9-.3-1.9.1-2.2,1-.7,2.1-1.6,4.1-2.4,6.2-.4,1.5-3.7,8.6-7.6,15-.5.9-.2,2.1.8,2.5,6.9,3,14.4,4.9,22.1,5.5,1,0,1.7-.8,1.8-1.8"/>
        <path class="cls-5" d="M195.5,149.2c1.9-.2,12.8,2.5,22,2.9,1,0,2-.5,2.1-1.5.8-8,.2-16.3-2.2-26.4-.3-1.1-1.5-1.6-2.5-1.1-8.4,4.6-17.9,6.7-27.4,8.5-1,.2-1.6,1.2-1.3,2.2,1.4,4.3,2.2,8.8,2.3,13.7,0,.9.8,1.7,1.7,1.7,1.8,0,3.5,0,5.3,0"/>
        <path class="cls-3" d="M166.9,117.8c-21-19.3-59.3-10.7-63.6,19.2-4.7,33.5,34.1,54,55.8,42.8,21.7-11.2,28.8-42.7,7.8-62"/>
        <path class="cls-2" d="M157.6,128.4c-12.7-11.5-35.8-6.4-38.4,11.4-2.9,20,20.6,32.1,33.7,25.5,13.1-6.7,17.4-25.4,4.7-36.9"/>
        <path class="cls-5" d="M196.9,88.7c-5.5,9.4-13.9,16.6-22.4,23.2-.8.6-.9,1.8-.2,2.5,3.2,3.3,6,7,8.3,11,.5.8,1.5,1.1,2.3.7,1.8-1,10.4-3.5,12.2-4.4,1.9-1.3,9-5.4,17.7-6.8-.2-.7-.4-1.4-.7-2.2-3-9.5-8.1-17.6-14.5-24.4-.8-.8-2.1-.6-2.7.4"/>
        <path class="cls-5" d="M92.6,157.8c-.3-.9-1.1-1.4-2-1.2-1.3.3-5,0-6.3.2-1.2.5-4.1.3-10.8,2.7-1,.3-1.8,1-1.5,2.1,1.5,7,3.5,13.9,6.3,20,.4,1,1.6,1.3,2.5.7,5.3-3.6,9.8-4.8,17.1-9.2.9-.6,1.3-1.6.7-2.5-2.7-4.1-4.7-8.4-6-12.7"/>
        <path class="cls-5" d="M178,177.7c-3.1,3.5-6.7,6.4-10.7,8.8-.9.5-1.1,1.6-.5,2.5,1,1.5,2,3,3,4.5,1.1,1.3,1.8,8.6,8.9,16.6.6.7,1.4,1.3,2.3.9,7.6-3.5,14.4-8.1,20.2-14.8.7-.8.4-2.1-.5-2.6-7.5-4.1-14-9.9-20.1-16-.7-.7-1.8-.6-2.5.1"/>
        <path class="cls-5" d="M188.1,154.8c0,.4,0,.8-.1,1.2-.8,5.2-2.4,9.8-4.6,14-.5.8-.2,1.9.7,2.3,1.3.7,2.7,1.4,4,2.2,1.8.7,7.4,6.3,17.5,12.2.9.5,2.1.5,2.6-.4,2.6-4.5,4.8-9.6,6.8-15.5,1-2.9,1.8-5.6,2.5-8.3.3-1.1-.6-2.1-1.7-2.1-9.4-.1-18.7-2.7-27.7-5.5"/>
        <path class="cls-5" d="M191.8,81.2c-7.9-6.2-16.9-10.8-26.1-13.5-1.1-.3-1.8.5-2.2,1.6-4.5,13.1-6.1,20.1-8.7,30.1-.2.9,0,1.9.9,2.2,4.2,1.8,8.2,4.2,12,7,.8.6,1.9.4,2.4-.4,1.2-1.8,2.4-3.5,3.7-5.3,1.1-2,10.3-9.9,18-19,.7-.9.9-2,0-2.7"/>
        <path class="cls-5" d="M159,190.4c-4.3,1.5-8.9,2.5-13.5,2.8-1,0-1.7.9-1.6,1.9.3,2.2.5,4.4.8,6.6.4,1.5.7,9.2.3,16.7,0,1.1.8,1.9,1.9,1.8,2.4-.2,4.8-.6,7.2-1.1,5.2-1.1,10.1-2.3,14.8-3.7,1.1-.3,1.5-1.5,1-2.5-3.8-6.7-6.4-14.1-8.7-21.5-.3-.9-1.3-1.4-2.2-1.1"/>
        <path class="cls-5" d="M132.7,96.9c4.6-.1,9.4.4,14.1,1.7,1,.3,2-.4,2.1-1.4.2-1.6.4-3.1.6-4.6,0-2.2,3.1-16.8,6.9-24.8.5-1-.1-2.2-1.3-2.4-10.2-1.6-20.1-.9-28.4,2.1-.9.3-1,1.3-.9,2.3.6,5.9,1.7,15.1,5.1,25.7.3.9.8,1.6,1.8,1.6"/>
        <path class="cls-5" d="M94.8,124.4c1.9-4.4,4.5-8.6,7.7-12.3.6-.7.6-1.7-.1-2.4-.5-.4-.9-.9-1.4-1.3-1.5-1-5.9-8.4-13.4-15.1-.8-.7-1.9-1-2.6-.2-5.5,5.5-9.6,11.1-12.1,16.8-.5,1.2-1,2.5-1.4,4-.3.9.3,1.7,1.2,2.1,6.7,3.5,13.5,5.5,19.8,9.1.9.5,2,.1,2.4-.8"/>
        <path class="cls-5" d="M115.7,188.9c.6-.8.4-2-.5-2.5-3.1-1.8-6.1-4-8.9-6.6-.7-.7-1.4-1.3-2-2-.6-.7-1.7-.7-2.4,0-1.4,1.3-2.8,2.5-4.2,3.7-1,1.1-5.9,3.2-12.5,9.1-.7.7-1.1,1.7-.5,2.5,4.5,6.2,9.9,11.4,15.9,15.6.9.6,2,.3,2.5-.7,3.3-6.8,7.9-13,12.6-18.9"/>
        <path class="cls-6" d="M231.8,37.9c-9.9-11-24.6-11.7-32.9-5.4-6.7,5-11.2,8.6-17.5,17.9-4.6,6.7-3.4,9.8-.3,12.1l.3.2c4.4,2.6,7.8-1.3,12.1-5.6,4.6-4.7,15.8-12,23.9-5.6,7.4,5.9,1.3,15.8-2.4,20.5-4.4,5.5-9,10.7-5.3,13.6l.3.3c3.4,2.7,9.8.4,13.6-2.7,11.6-9.4,23.9-27.8,8.3-45.2"/>
        <path class="cls-6" d="M137.8,6c-14.7-1.4-26,8.1-27.9,18.3-1.5,8.2-2.4,13.9-.8,25,1.2,8,4.1,9.5,8,9.1h.4c5-1.1,4.9-6.3,5.1-12.4.2-6.6,3.5-19.5,13.8-20.3,9.4-.7,11.6,10.7,12.1,16.7.5,7,.7,14,5.3,13.6h.4c4.3-.4,7.5-6.3,8.2-11.2,2.2-14.7-1.2-36.7-24.5-38.9"/>
        <path class="cls-6" d="M9.2,127.7c-4.1,14.2,3.1,27.1,12.8,30.8,7.8,3,13.2,4.9,24.5,5.4,8.1.3,10.1-2.3,10.4-6.1v-.4c0-5.1-5.2-5.9-11.1-7.3-6.4-1.5-18.6-7-17.4-17.3,1.1-9.4,12.7-9.5,18.7-8.8,6.9.8,13.8,1.9,14.3-2.7v-.4c.5-4.3-4.8-8.5-9.4-10.2-14.1-4.9-36.3-5.6-42.8,16.9"/>
        <path class="cls-6" d="M100.2,273.6c12.9,7.1,27.1,2.9,32.9-5.7,4.7-7,7.7-11.8,10.6-22.7,2.1-7.8,0-10.4-3.7-11.5h-.4c-5-1.1-6.9,3.7-9.5,9.2-2.8,5.9-10.9,16.6-20.7,13.1-8.9-3.1-6.5-14.4-4.5-20.1,2.3-6.6,4.9-13.1.5-14.6h-.4c-4.1-1.5-9.4,2.7-12,6.9-7.8,12.7-13.4,34.2,7.1,45.4"/>
        <path class="cls-6" d="M266.2,211.7c9-11.7,7-26.4-.7-33.3-6.2-5.7-10.5-9.4-20.8-14-7.4-3.3-10.2-1.6-12,1.9l-.2.3c-1.8,4.8,2.7,7.4,7.7,10.8,5.4,3.7,14.7,13.3,9.8,22.4-4.4,8.3-15.3,4.2-20.6,1.4-6.2-3.3-12.2-6.9-14.3-2.7l-.2.4c-2,3.8,1.4,9.7,5.1,12.9,11.3,9.6,31.7,18.4,46-.1"/>
        <path class="cls-6" d="M274.1,121.5c-.5-13.2-10.2-22.3-19.5-22.8-7.5-.4-12.7-.6-22.4,2.2-7,2-8,4.8-7.2,8.2v.3c1.6,4.3,6.2,3.6,11.6,3.1,5.9-.5,17.8.8,19.6,10,1.7,8.3-8.2,11.6-13.5,12.7-6.2,1.2-12.4,2.2-11.5,6.3v.4c.9,3.8,6.6,6,11,6,13.4.2,32.6-5.3,31.8-26.3"/>
        <path class="cls-6" d="M53.9,49.6c-10.7,7.8-12.7,20.9-7.9,28.9,3.9,6.5,6.6,10.8,14.3,17.3,5.5,4.7,8.4,4,10.8,1.4l.2-.2c2.8-3.7-.4-7.1-3.9-11.3-3.7-4.6-9.3-15.2-2.7-21.8,6-6,14.2.3,18.1,4.1,4.5,4.4,8.7,9,11.6,6l.3-.3c2.7-2.8,1.3-8.7-1.1-12.4-7.3-11.2-22.6-24-39.6-11.6"/>
        <path class="cls-6" d="M32.7,213.6c5.4,12.1,17.9,16.8,26.7,13.7,7.1-2.5,11.9-4.3,19.9-10.5,5.7-4.5,5.6-7.4,3.6-10.3l-.2-.3c-3-3.4-7-1-11.9,1.5-5.2,2.7-16.8,6-21.9-1.8-4.7-7.1,3.2-13.9,7.7-16.8,5.2-3.5,10.6-6.7,8.3-10.2l-.2-.3c-2.2-3.2-8.3-3.1-12.4-1.5-12.5,4.8-28.1,17.2-19.5,36.4"/>
        <path class="cls-6" d="M190.7,265.8c12.9-3,19.9-14.2,18.7-23.5-1-7.5-1.9-12.5-6.4-21.6-3.2-6.5-6.2-7-9.4-5.5h-.3c-4,2.4-2.4,6.8-.9,12.1,1.6,5.7,2.6,17.6-6.1,21.2-7.9,3.2-13-5.9-15-10.9-2.4-5.8-4.5-11.7-8.4-10.1h-.3c-3.6,1.6-4.6,7.6-3.9,12,2.3,13.2,11.4,31,31.9,26.3"/>
      </g>
    </g>
  </g>
</svg>