<?xml version="1.0" encoding="UTF-8" standalone="no"?>
<!DOCTYPE svg PUBLIC "-//W3C//DTD SVG 1.1//EN" "http://www.w3.org/Graphics/SVG/1.1/DTD/svg11.dtd">
<svg width="100%" height="100%" viewBox="0 0 303 113" version="1.1" xmlns="http://www.w3.org/2000/svg" xmlns:xlink="http://www.w3.org/1999/xlink" xml:space="preserve" xmlns:serif="http://www.serif.com/" style="fill-rule:evenodd;clip-rule:evenodd;stroke-linejoin:round;stroke-miterlimit:2;">
    <g transform="matrix(1,0,0,1,-151,0)">
        <g id="Layer_1">
            <g>
                <path d="M3.3,63.7C6.7,61.4 10.6,59.1 14.5,57.3L14.8,57.3L40.3,50.3C66,43.4 92,37.6 118.4,34.3C136.1,32.1 154.1,31.1 171.9,32.3C182.5,33.1 193.2,34.6 203.7,37.1C205.1,37.4 206.9,37.8 208.3,38C230.8,41.5 253.8,42.7 276.5,43.5C280.3,43.5 284.1,43.7 287.8,43.5C290.5,43.5 293.5,43.3 296.1,43.3C311,43.3 326.8,41.4 341.6,39.8C372.1,36.7 401.7,28.4 431.3,20.3L435.3,19.2L436.5,23.3C437.3,25.9 446,55.7 446.6,57.3C427.9,62.6 409.1,67.8 390.1,72.2C361.6,78.9 332.7,84.5 303.5,87.1L296.7,87.6C283,89 269.2,87.6 255.7,86C238,83.8 219.7,82.1 202.1,79.1C193.3,77.7 184.8,75.3 175.8,74.2C158.4,71.9 140.7,70.9 123.1,72.2C96.5,74.3 70.4,80.1 44.7,87C37.4,89 26.1,91.9 18.9,94.4L18.4,94.4C18.4,94.5 17.9,94.5 17.9,94.5L11.6,94.5C8.5,84.4 5.7,73.9 3.3,63.7M10.7,66.9C13.6,74.6 16.1,81.9 18.3,89.6L14.4,86.7L17.9,86.7L16.8,86.9C19.7,86.1 23.3,84.7 26.4,83.9C49.1,77.6 72.2,71.6 95.4,67.8C104.3,66.4 113.3,65.2 122.4,64.5C135.9,63.3 149.8,62.1 163.4,63.7C174.7,64.7 185.9,66.5 197,69.1C207.8,71.2 218.8,72.7 229.8,74.1C243,75.8 256.4,77 269.7,77.9C276.1,78.3 282.8,78.8 289.1,78.5C304.5,77.5 320.2,75.8 335.4,73.3C361.8,69.1 387.9,63.2 413.8,56.6C422.5,54.4 431.1,52.1 439.7,49.8L436.6,55.4L428.2,25.6L433.5,28.6C401.7,37.4 368.9,44.6 336.2,49.4C327.6,50.4 318.3,50.9 309.6,51.5C307.5,51.6 304.9,51.8 302.8,51.9C298.2,51.9 292.5,52.2 288,52.3C284,52.6 280.2,52.5 276.3,52.5C253,51.9 229.7,50.9 206.6,47.5C205.1,47.3 203,46.8 201.5,46.5C157.4,36.6 111.7,44 68.1,53C51.5,56.6 33.5,61.3 17,65.3L17.7,65C15.6,66 13.4,66.5 10.8,67.1" style="fill:rgb(255,203,90);fill-rule:nonzero;"/>
                <path d="M15.9,86.3C13.4,80.1 11.3,73.2 9.8,66.7C44.6,57 79.9,47.9 115.9,43.1C142.2,39.7 169.1,39 195.3,44.1C201.3,45.5 208.1,46.9 214.2,47.7C233.4,50.2 252.8,51.4 272.2,52.1C277.6,52.2 282.7,52.5 288,52.1C291.1,51.9 294.7,51.6 297.8,51.4C306.5,50.8 315.1,50.8 323.7,50.2C336.6,49.1 349.4,47.3 362.2,45.1C383.4,41.5 404.6,36.5 425.3,30.7L429.5,29.5L430.8,33.8C431.8,36.8 435.1,48.3 436,51.2C417.6,56.4 399.2,61.2 380.6,65.4C350.6,72.2 320.2,77.5 289.5,79.3C280.4,79.7 258.9,77 249.5,76.3C227.7,74.2 205.9,71.5 184.5,66.6C172,64.4 159.1,62.9 146.3,63.2C107.4,64.1 69,72.8 31.6,83.1L25.3,84.8L23.7,85.2C21.3,86 18.3,86.3 16,86.1M19.8,79.5L20,79.2C20.4,78.5 20.4,78 20.6,77.8C20.6,77.8 20.7,77.8 20.8,77.7L21.5,77.5L23.1,77.1C73.9,63.4 126.6,51.4 179.5,56.6C183.9,57.1 188.4,58.1 192.8,59.1C203.2,61.6 213.8,63 224.6,64.5C241.8,66.7 259,68.7 276.3,69.6C280.4,69.8 284.9,70 288.8,69.8C336.4,66.7 383,56 429.1,43.6L425.9,49.3L422.2,36.3L427.7,39.4C408.7,44.5 389.4,48.8 370.1,52.3C355,54.9 339.8,56.9 324.5,58.3C315.8,59.3 307.1,60.2 298.4,60.4C280.9,61.5 263.2,60.7 245.8,59.7C233.8,59 221.7,58 209.7,56.4C204.6,55.7 198.6,54.4 193.5,53.3C185.2,51.7 176.7,50.8 168.2,50.4C142.6,49.1 116.8,52.3 91.6,56.8C66.1,61.3 40.9,67.4 15.7,73.7L18.8,68.3C19.6,72.1 19.6,75.6 19.9,79.6" style="fill:rgb(180,73,53);fill-rule:nonzero;"/>
                <path d="M15.5,73.1C49,64.3 83.4,53.8 117.9,50.2C133.2,48.5 148.7,47.6 164.2,48.2C168.5,48.5 173.1,49.5 177.4,49.6C184,50.2 190.7,51.1 197.2,52.5C201,53.3 206.1,54.4 209.8,55C231.1,58.1 252.8,59.7 274.3,60.8C278.5,61 282.7,61.2 286.9,61C288.8,61 291.4,60.7 293.3,60.5C298.7,60 304.1,60.1 309.5,59.8C312.1,59.7 316.6,59.1 319.2,58.9C329.9,57.7 340.7,56.2 351.3,54.4C359.9,53.4 368.4,52 376.9,50.1C393.9,46.6 410.7,42.6 427.4,37.8L429.4,45C408.4,50.3 386.7,55.5 365.5,59.6C361.2,60.3 357,61.9 352.7,62.6C339.9,64.9 326.5,66.4 313.6,67.5C305.1,68.3 294,69.4 285.6,69.7C262,69.3 238.4,67.2 215.1,63.7C209,62.8 201.6,61.3 195.6,59.8C187.3,58 178.8,56.6 170.3,56.2C166,56.3 161.8,56.1 157.5,55.8C127.4,55.4 97.3,61.2 68.1,68.2C56,71.2 42.3,74.3 30.1,77C25.9,78 21.6,78.9 17.3,79.7L15.4,72.8" style="fill:rgb(55,59,56);fill-rule:nonzero;"/>
                <path d="M153.6,47.7C153.6,50.9 148.1,51 148,47.7C148,44.7 153.6,44.6 153.6,47.7" style="fill:rgb(247,240,229);fill-rule:nonzero;"/>
                <path d="M160.1,47.8C160.1,50.7 155.6,50.6 155.7,47.8C155.7,44.9 160.3,45 160.1,47.8" style="fill:rgb(247,240,229);fill-rule:nonzero;"/>
                <path d="M167.4,48.1C167.3,50.6 162.8,50.3 162.9,47.9C163,45.2 167.5,45.5 167.4,48.1" style="fill:rgb(247,240,229);fill-rule:nonzero;"/>
                <path d="M174.9,48.6C174.6,51.8 169.3,51.5 169.5,48.2C169.5,45.3 175.2,45.9 174.9,48.6" style="fill:rgb(247,240,229);fill-rule:nonzero;"/>
                <path d="M181.3,49.3C181.1,51.9 176.5,51.3 176.8,48.8C177,46.1 181.7,46.5 181.3,49.3" style="fill:rgb(247,240,229);fill-rule:nonzero;"/>
                <path d="M188.9,50.4C188.4,53.4 183.3,53 183.9,49.7C184.2,46.3 189.5,47.3 188.9,50.4" style="fill:rgb(247,240,229);fill-rule:nonzero;"/>
                <path d="M195.4,51.6C195,54.3 190.2,53.2 190.7,50.7C191.1,48 196.1,48.7 195.4,51.6" style="fill:rgb(247,240,229);fill-rule:nonzero;"/>
                <path d="M202,53.1C201.5,55.4 197.1,54.8 197.8,52.2C198.2,49.7 202.5,50.9 202,53.1" style="fill:rgb(247,240,229);fill-rule:nonzero;"/>
                <path d="M209.7,54.5C209.3,57.6 203.8,56.7 204.5,53.6C205.1,50.3 210.3,51.2 209.7,54.5" style="fill:rgb(247,240,229);fill-rule:nonzero;"/>
                <path d="M217.4,55.5C217,58.6 211.5,57.9 211.9,54.8C212.3,51.9 217.7,52.7 217.4,55.5" style="fill:rgb(247,240,229);fill-rule:nonzero;"/>
                <path d="M224,56.2C223.8,59.1 218.8,58.4 219.1,55.7C219.4,53.2 224.4,53.6 224,56.2" style="fill:rgb(247,240,229);fill-rule:nonzero;"/>
                <path d="M231.3,56.9C231.1,59.8 225.7,59.2 226,56.4C226.2,53.5 231.6,53.9 231.3,56.9" style="fill:rgb(247,240,229);fill-rule:nonzero;"/>
                <path d="M238.6,57.5C238.3,60.7 232.8,60.3 233,57.1C233.3,54.1 238.8,54.5 238.6,57.5" style="fill:rgb(247,240,229);fill-rule:nonzero;"/>
                <path d="M245,57.9C245,60.8 240.3,60.5 240.6,57.6C240.7,54.8 245.3,55 245,57.9" style="fill:rgb(247,240,229);fill-rule:nonzero;"/>
                <path d="M252.3,58.4C252.2,60.9 247.7,60.6 247.8,58.1C248,55.5 252.4,55.8 252.3,58.4" style="fill:rgb(247,240,229);fill-rule:nonzero;"/>
                <path d="M259.8,58.8C259.6,62.1 254.2,61.9 254.4,58.5C254.4,55.7 260,56 259.8,58.8" style="fill:rgb(247,240,229);fill-rule:nonzero;"/>
                <path d="M266.2,59C266.2,61.6 261.5,61.3 261.7,58.8C261.8,56.1 266.4,56.1 266.2,59" style="fill:rgb(247,240,229);fill-rule:nonzero;"/>
                <path d="M273.9,59.3C273.9,62.4 268.6,62.5 268.8,59.1C268.8,55.7 274,56.1 273.9,59.3" style="fill:rgb(247,240,229);fill-rule:nonzero;"/>
                <path d="M280.5,59.4C280.6,62.2 275.6,61.9 275.7,59.4C275.7,56.7 280.6,56.6 280.5,59.4" style="fill:rgb(247,240,229);fill-rule:nonzero;"/>
                <path d="M287.3,59.3C287.5,61.7 282.9,62.1 283,59.4C282.9,56.9 287.1,57 287.3,59.3" style="fill:rgb(247,240,229);fill-rule:nonzero;"/>
                <path d="M295.1,58.7C295.4,61.8 290,62.2 289.8,59.1C289.5,55.8 294.9,55.4 295.1,58.7" style="fill:rgb(247,240,229);fill-rule:nonzero;"/>
                <path d="M302.9,58.3C303.1,61.4 297.6,61.8 297.4,58.6C297.2,55.7 302.7,55.4 302.9,58.3" style="fill:rgb(247,240,229);fill-rule:nonzero;"/>
                <path d="M309.5,57.8C309.8,60.7 304.8,60.8 304.6,58.1C304.4,55.6 309.4,55.1 309.5,57.8" style="fill:rgb(247,240,229);fill-rule:nonzero;"/>
                <path d="M316.8,57.3C317.1,60.2 311.6,60.5 311.5,57.7C311.3,54.8 316.7,54.3 316.8,57.3" style="fill:rgb(247,240,229);fill-rule:nonzero;"/>
                <path d="M324,56.7C324.3,59.9 318.7,60.4 318.4,57.2C318.2,54.2 323.7,53.7 324,56.7" style="fill:rgb(247,240,229);fill-rule:nonzero;"/>
                <path d="M330.4,56C330.8,58.9 326.2,59.4 326,56.5C325.6,53.7 330.2,53.2 330.4,56" style="fill:rgb(247,240,229);fill-rule:nonzero;"/>
                <path d="M337.7,55.2C338,57.6 333.5,58.2 333.2,55.7C332.9,53.1 337.3,52.6 337.7,55.2" style="fill:rgb(247,240,229);fill-rule:nonzero;"/>
                <path d="M345.1,54.3C345.5,57.5 340.1,58.3 339.7,55C339.3,52.2 344.8,51.6 345.1,54.3" style="fill:rgb(247,240,229);fill-rule:nonzero;"/>
                <path d="M351.5,53.4C352,56 347.3,56.5 347,54C346.6,51.3 351.1,50.5 351.5,53.4" style="fill:rgb(247,240,229);fill-rule:nonzero;"/>
                <path d="M359.1,52.2C359.6,55.3 354.4,56.3 354.1,53C353.4,49.6 358.6,49.1 359.1,52.2" style="fill:rgb(247,240,229);fill-rule:nonzero;"/>
                <path d="M365.7,51.1C366.3,53.8 361.3,54.5 361,51.9C360.5,49.2 365.4,48.2 365.7,51.1" style="fill:rgb(247,240,229);fill-rule:nonzero;"/>
                <path d="M372.3,50C372.7,52.3 368.4,53.4 368.1,50.8C367.5,48.3 371.9,47.8 372.3,50" style="fill:rgb(247,240,229);fill-rule:nonzero;"/>
                <path d="M380,48.5C380.7,51.6 375.3,52.6 374.8,49.5C374.1,46.2 379.4,45.2 380,48.5" style="fill:rgb(247,240,229);fill-rule:nonzero;"/>
                <path d="M387.6,46.9C388.2,49.9 382.8,51.1 382.2,48C381.6,45.1 387,44.1 387.6,46.9" style="fill:rgb(247,240,229);fill-rule:nonzero;"/>
                <path d="M394.1,45.4C394.8,48.2 389.9,49.1 389.3,46.5C388.8,44.1 393.6,42.8 394.1,45.4" style="fill:rgb(247,240,229);fill-rule:nonzero;"/>
                <path d="M380.1,57.7C379.4,54.9 384.7,53.8 385.2,56.5C385.9,59.3 380.6,60.6 380.1,57.7" style="fill:rgb(247,240,229);fill-rule:nonzero;"/>
                <path d="M373.1,59.2C372.5,56 377.8,54.9 378.5,58C379.1,61 373.7,62.2 373.1,59.2" style="fill:rgb(247,240,229);fill-rule:nonzero;"/>
                <path d="M366.9,60.6C366.2,57.7 370.7,56.9 371.2,59.7C371.9,62.5 367.4,63.4 366.9,60.6" style="fill:rgb(247,240,229);fill-rule:nonzero;"/>
                <path d="M359.8,62C359.3,59.6 363.7,58.7 364.2,61.1C364.7,63.7 360.4,64.5 359.8,62" style="fill:rgb(247,240,229);fill-rule:nonzero;"/>
                <path d="M352.5,63.4C351.9,60.2 357.1,59.1 357.8,62.4C358.4,65.2 353,66.1 352.5,63.4" style="fill:rgb(247,240,229);fill-rule:nonzero;"/>
                <path d="M346.2,64.6C345.6,62 350.2,61.4 350.6,63.8C351.1,66.5 346.6,67.4 346.2,64.6" style="fill:rgb(247,240,229);fill-rule:nonzero;"/>
                <path d="M338.7,65.8C338.2,62.7 343.2,61.7 343.7,65C344.4,68.4 339.2,69 338.7,65.8" style="fill:rgb(247,240,229);fill-rule:nonzero;"/>
                <path d="M332.2,66.8C331.6,64.1 336.5,63.5 336.9,66.1C337.4,68.8 332.5,69.7 332.2,66.8" style="fill:rgb(247,240,229);fill-rule:nonzero;"/>
                <path d="M325.6,67.8C325.3,65.5 329.5,64.6 329.8,67.2C330.3,69.7 325.9,70.1 325.6,67.8" style="fill:rgb(247,240,229);fill-rule:nonzero;"/>
                <path d="M317.9,68.8C317.4,65.7 322.8,65 323.1,68.1C323.6,71.4 318.2,72.1 317.9,68.8" style="fill:rgb(247,240,229);fill-rule:nonzero;"/>
                <path d="M310.2,69.7C309.9,66.6 315.2,65.9 315.6,69.1C316,72 310.5,72.5 310.2,69.7" style="fill:rgb(247,240,229);fill-rule:nonzero;"/>
                <path d="M303.7,70.4C303.4,67.5 308.2,67.2 308.5,69.9C308.8,72.4 303.8,73.1 303.7,70.4" style="fill:rgb(247,240,229);fill-rule:nonzero;"/>
                <path d="M296.4,71C296.1,68.1 301.4,67.8 301.7,70.6C302,73.5 296.6,74 296.4,71" style="fill:rgb(247,240,229);fill-rule:nonzero;"/>
                <path d="M289.3,71.5C289.1,68.3 294.6,67.9 294.8,71.1C295,74.1 289.5,74.5 289.3,71.5" style="fill:rgb(247,240,229);fill-rule:nonzero;"/>
                <path d="M282.9,71.6C282.9,68.7 287.2,68.7 287.3,71.6C287.5,74.6 282.7,74.5 282.9,71.6" style="fill:rgb(247,240,229);fill-rule:nonzero;"/>
                <path d="M275.6,71.3C275.7,68.9 280.1,69.1 280,71.5C279.9,74.1 275.4,73.9 275.6,71.3" style="fill:rgb(247,240,229);fill-rule:nonzero;"/>
                <path d="M268.2,70.8C268.5,67.6 273.8,67.8 273.6,71.2C273.6,74 268,73.6 268.2,70.8" style="fill:rgb(247,240,229);fill-rule:nonzero;"/>
                <path d="M261.9,70.4C262,67.8 266.6,68.3 266.3,70.8C266.1,73.5 261.5,73.3 261.9,70.4" style="fill:rgb(247,240,229);fill-rule:nonzero;"/>
                <path d="M254.3,69.7C254.6,66.6 259.7,66.8 259.3,70.2C259.1,73.6 254,72.9 254.3,69.7" style="fill:rgb(247,240,229);fill-rule:nonzero;"/>
                <path d="M247.7,69C247.8,66.3 252.7,66.9 252.4,69.5C252.2,72.2 247.3,71.9 247.7,69" style="fill:rgb(247,240,229);fill-rule:nonzero;"/>
                <path d="M241.1,68.3C241.4,65.9 245.7,66.1 245.3,68.7C245.2,71.3 240.8,70.5 241.1,68.3" style="fill:rgb(247,240,229);fill-rule:nonzero;"/>
                <path d="M233.4,67.5C233.7,64.4 239,65 238.6,68.1C238.3,71.4 232.9,70.8 233.4,67.5" style="fill:rgb(247,240,229);fill-rule:nonzero;"/>
                <path d="M225.7,66.6C226.1,63.6 231.5,64.1 231.1,67.3C230.8,70.2 225.3,69.5 225.7,66.6" style="fill:rgb(247,240,229);fill-rule:nonzero;"/>
                <path d="M219.2,65.8C219.5,62.9 224.3,63.8 224,66.4C223.7,68.9 218.7,68.4 219.2,65.8" style="fill:rgb(247,240,229);fill-rule:nonzero;"/>
                <path d="M212,64.7C212.3,61.8 217.6,62.7 217.2,65.4C216.8,68.3 211.5,67.6 212,64.7" style="fill:rgb(247,240,229);fill-rule:nonzero;"/>
                <path d="M204.9,63.6C205.5,60.4 210.8,61.3 210.4,64.5C209.9,67.5 204.4,66.6 204.9,63.6" style="fill:rgb(247,240,229);fill-rule:nonzero;"/>
                <path d="M198.7,62.5C199.1,59.6 203.6,60.5 203,63.3C202.6,66.1 198,65.3 198.7,62.5" style="fill:rgb(247,240,229);fill-rule:nonzero;"/>
                <path d="M191.5,61C192.1,58.6 196.3,59.5 195.8,62C195.3,64.5 190.9,63.6 191.5,61" style="fill:rgb(247,240,229);fill-rule:nonzero;"/>
                <path d="M184.3,59.5C184.9,56.3 190.3,57.3 189.6,60.6C189.1,63.3 183.8,62.2 184.3,59.5" style="fill:rgb(247,240,229);fill-rule:nonzero;"/>
                <path d="M178,58.5C178.2,55.9 182.9,56.7 182.4,59.2C182,61.9 177.5,61.4 178,58.5" style="fill:rgb(247,240,229);fill-rule:nonzero;"/>
                <path d="M170.5,57.6C170.8,54.5 176.1,54.9 175.5,58.2C175.2,61.6 170.2,60.8 170.5,57.6" style="fill:rgb(247,240,229);fill-rule:nonzero;"/>
                <path d="M163.9,57.1C163.9,54.3 168.9,54.9 168.6,57.5C168.4,60.2 163.6,60 163.9,57.1" style="fill:rgb(247,240,229);fill-rule:nonzero;"/>
                <path d="M157.2,56.7C157.3,54.3 161.7,54.2 161.5,56.9C161.5,59.4 157.2,59 157.2,56.7" style="fill:rgb(247,240,229);fill-rule:nonzero;"/>
                <path d="M149.5,56.7C149.4,53.5 154.9,53.6 154.7,56.7C154.7,60 149.4,60 149.5,56.7" style="fill:rgb(247,240,229);fill-rule:nonzero;"/>
                <path d="M399.7,44.2C400.1,45.6 399,47.1 397.5,46.8C395.7,46.5 395.1,44 396.5,42.9C397.7,41.9 399.4,42.8 399.7,44.3" style="fill:rgb(247,240,229);fill-rule:nonzero;"/>
                <path d="M405.1,42.9C405.5,44.5 404.2,46.6 402.4,45.7C400.9,45 400.4,42.7 401.7,41.6C402.9,40.5 404.8,41.5 405.1,42.9" style="fill:rgb(247,240,229);fill-rule:nonzero;"/>
                <path d="M409.7,41.7C410,42.7 409.7,44.1 408.6,44.3C406.5,44.5 405.6,40.8 407.4,40C408.5,39.6 409.5,40.7 409.7,41.7" style="fill:rgb(247,240,229);fill-rule:nonzero;"/>
                <path d="M415.1,40.4C415.6,42.8 412.7,43.7 411.8,41.3C411.5,40.4 411.8,39.2 412.8,38.9C413.8,38.6 414.8,39.5 415,40.4" style="fill:rgb(247,240,229);fill-rule:nonzero;"/>
                <path d="M420.6,39C421.1,41.1 419.1,43.3 417.3,41.3C416.3,40.3 416.2,38.3 417.6,37.6C418.8,37 420.2,37.6 420.5,39" style="fill:rgb(247,240,229);fill-rule:nonzero;"/>
                <path d="M425.3,37.7C425.7,38.8 425,40.2 423.7,40.1C422.3,40.1 421.6,38.4 422.1,37.2C422.8,35.2 424.9,36 425.3,37.7" style="fill:rgb(247,240,229);fill-rule:nonzero;"/>
                <path d="M423.7,47C423.2,45.2 425.2,43.4 427,43.8C427.4,43.8 427.7,44 428,44.3C429.3,45.3 429.3,47.5 427.9,48.4C426.5,49.3 424.2,48.6 423.7,47" style="fill:rgb(247,240,229);fill-rule:nonzero;"/>
                <path d="M416.9,48.8C416.4,47 418.4,45.9 420,46.1C422.1,46.3 422.5,48.6 420.9,49.8C419.6,50.8 417.4,50.6 417,48.8" style="fill:rgb(247,240,229);fill-rule:nonzero;"/>
                <path d="M410,50.5C409.7,49.4 410.8,48.3 411.8,48C412.9,47.6 414.2,48.2 414.4,49.3C415,51.8 410.7,52.6 410,50.4" style="fill:rgb(247,240,229);fill-rule:nonzero;"/>
                <path d="M402.1,52.6C401.6,50.7 403.6,49.3 405.3,49.5C407.5,49.7 408.3,52.2 406.7,53.7C405.3,55.1 402.5,54.6 402,52.6" style="fill:rgb(247,240,229);fill-rule:nonzero;"/>
                <path d="M394.1,54.5C393.7,52.6 396,51 397.8,51.4C399.9,51.8 400.6,54.2 398.7,55.4C397.3,56.3 394.7,56.3 394.2,54.4" style="fill:rgb(247,240,229);fill-rule:nonzero;"/>
                <path d="M387.3,56.1C386.9,54.3 388.9,53.1 390.5,53.4C392.5,53.7 393.1,55.8 391.3,57C390.1,57.9 387.7,57.9 387.3,56.1" style="fill:rgb(247,240,229);fill-rule:nonzero;"/>
                <path d="M154.4,36.8C154.4,38.1 153.4,39 152.2,39C151,39 149.9,38.1 149.9,36.8C149.9,35.5 151,34.5 152.2,34.5C153.4,34.5 154.4,35.5 154.4,36.8" style="fill:rgb(180,73,53);fill-rule:nonzero;"/>
                <path d="M160.4,36.9C160.4,38.2 159.2,39.4 158,39.4C156.8,39.4 155.7,38.1 155.7,36.8C155.7,35.5 156.9,34.5 158.1,34.5C159.3,34.5 160.4,35.6 160.4,36.9" style="fill:rgb(180,73,53);fill-rule:nonzero;"/>
                <path d="M165.8,37.1C165.8,38.3 165,39.3 163.9,39.3C162.8,39.3 162.1,38.2 162.1,37C162.1,35.8 162.9,34.8 164.1,34.8C165.2,34.8 165.9,35.9 165.9,37.1" style="fill:rgb(180,73,53);fill-rule:nonzero;"/>
                <path d="M172,37.4C172,38.5 171,39.2 170,39.2C169,39.2 168.2,38.3 168.2,37.2C168.2,36.1 169.2,35.2 170.2,35.2C171.2,35.2 172,36.3 172,37.3" style="fill:rgb(180,73,53);fill-rule:nonzero;"/>
                <path d="M178.3,37.8C178.2,39.1 177,40.3 175.8,40.2C174.6,40.2 173.7,38.8 173.8,37.5C173.8,36.2 174.9,35.4 176.2,35.5C177.4,35.5 178.5,36.5 178.4,37.8" style="fill:rgb(180,73,53);fill-rule:nonzero;"/>
                <path d="M183.7,38.2C183.6,39.3 182.8,40.1 181.7,40C180.6,40 179.8,39 179.9,37.9C179.9,36.8 181,35.8 182,35.9C183.1,35.9 183.7,37.1 183.6,38.2" style="fill:rgb(180,73,53);fill-rule:nonzero;"/>
                <path d="M190.1,39C189.9,40.3 188.8,41.3 187.6,41.2C186.4,41.1 185.8,39.8 185.9,38.5C186,37.2 186.9,36 188.2,36.1C189.4,36.2 190.3,37.6 190.2,38.9" style="fill:rgb(180,73,53);fill-rule:nonzero;"/>
                <path d="M195.6,39.7C195.4,40.9 194.5,41.6 193.4,41.4C192.3,41.3 191.4,40.3 191.6,39.1C191.8,37.9 192.8,37.1 194,37.2C195.1,37.4 195.8,38.4 195.6,39.6" style="fill:rgb(180,73,53);fill-rule:nonzero;"/>
                <path d="M201.2,40.7C201,41.7 199.9,42.4 199,42.3C198,42.1 197.5,41.2 197.7,40.1C197.9,39.1 198.7,38.4 199.6,38.5C200.6,38.7 201.4,39.6 201.2,40.7" style="fill:rgb(180,73,53);fill-rule:nonzero;"/>
                <path d="M207.6,41.9C207.3,43.2 206.2,44.1 204.9,43.8C203.7,43.5 203,42.3 203.2,41C203.5,39.7 204.6,38.6 205.9,38.9C207.2,39.2 207.8,40.6 207.5,41.9" style="fill:rgb(180,73,53);fill-rule:nonzero;"/>
                <path d="M214,43.5C213.7,44.8 212.2,45.6 211.1,45.3C209.9,45 209.2,43.7 209.5,42.4C209.8,41.1 211,40.5 212.3,40.8C213.5,41.1 214.3,42.2 214,43.5" style="fill:rgb(180,73,53);fill-rule:nonzero;"/>
                <path d="M219.4,44.6C219.2,45.8 218.2,46.6 217.1,46.4C216,46.1 215.1,44.9 215.4,43.8C215.7,42.6 216.8,42.1 217.9,42.4C219,42.6 219.6,43.5 219.4,44.7" style="fill:rgb(180,73,53);fill-rule:nonzero;"/>
                <path d="M225.5,45.6C225.3,46.9 224.3,47.7 223,47.5C221.8,47.3 220.8,46.2 221.1,45C221.3,43.7 222.5,43 223.7,43.1C224.9,43.2 225.7,44.3 225.6,45.6" style="fill:rgb(180,73,53);fill-rule:nonzero;"/>
                <path d="M231.6,46.2C231.5,47.5 230.2,48.6 229,48.5C227.8,48.4 226.8,47 226.9,45.7C227.1,44.4 228.3,43.5 229.5,43.7C230.7,43.8 231.7,44.9 231.6,46.2" style="fill:rgb(180,73,53);fill-rule:nonzero;"/>
                <path d="M236.9,46.7C236.9,47.9 236,48.9 234.9,48.8C233.8,48.8 233.1,47.5 233.2,46.4C233.3,45.2 234.2,44.3 235.2,44.4C236.3,44.5 236.9,45.6 236.8,46.8" style="fill:rgb(180,73,53);fill-rule:nonzero;"/>
                <path d="M243.1,47.1C243.1,48.2 242.1,48.9 241.1,48.9C240.1,48.9 239.3,47.9 239.3,46.9C239.3,45.8 240.3,44.9 241.3,45C242.3,45 243.1,46.1 243.1,47.2" style="fill:rgb(180,73,53);fill-rule:nonzero;"/>
                <path d="M249.3,47.4C249.3,48.7 248.1,49.9 246.9,49.9C245.7,49.9 244.7,48.5 244.8,47.2C244.8,45.9 245.9,45.1 247.1,45.2C248.3,45.2 249.4,46.1 249.3,47.4" style="fill:rgb(180,73,53);fill-rule:nonzero;"/>
                <path d="M254.8,47.5C254.8,48.6 254,49.4 252.9,49.4C251.8,49.4 251,48.5 251,47.4C251,46.3 252,45.2 253,45.3C254.1,45.3 254.8,46.4 254.7,47.5" style="fill:rgb(180,73,53);fill-rule:nonzero;"/>
                <path d="M261.2,47.7C261.2,49 260.1,50.2 258.9,50.2C257.7,50.2 256.9,48.9 257,47.6C257,46.3 257.8,45.1 259.1,45.1C260.3,45.1 261.3,46.4 261.3,47.7" style="fill:rgb(180,73,53);fill-rule:nonzero;"/>
                <path d="M266.8,47.8C266.8,49 266,49.8 264.8,49.8C263.7,49.8 262.7,49 262.7,47.7C262.7,46.5 263.7,45.5 264.8,45.6C265.9,45.6 266.7,46.6 266.7,47.8" style="fill:rgb(180,73,53);fill-rule:nonzero;"/>
                <path d="M272.4,47.9C272.4,49 271.4,49.8 270.4,49.8C269.4,49.8 268.7,48.9 268.8,47.8C268.8,46.7 269.5,46 270.5,46C271.5,46 272.4,46.8 272.4,47.9" style="fill:rgb(180,73,53);fill-rule:nonzero;"/>
                <path d="M279,47.9C279,49.3 278.1,50.3 276.8,50.3C275.5,50.3 274.6,49.2 274.6,47.9C274.6,46.5 275.6,45.3 276.8,45.3C278.1,45.3 279,46.5 279,47.9" style="fill:rgb(180,73,53);fill-rule:nonzero;"/>
                <path d="M285.5,47.8C285.5,49.1 284.4,50.2 283.2,50.3C282,50.3 280.9,49.2 280.9,47.9C280.9,46.6 281.9,45.7 283.1,45.7C284.3,45.7 285.5,46.6 285.5,47.9" style="fill:rgb(180,73,53);fill-rule:nonzero;"/>
                <path d="M291.1,47.7C291.1,48.9 290.3,49.9 289.2,49.9C288.1,49.9 287,49 287,47.8C287,46.6 288,45.8 289.1,45.8C290.2,45.8 291.1,46.5 291.1,47.7" style="fill:rgb(180,73,53);fill-rule:nonzero;"/>
                <path d="M297.3,47.6C297.3,48.9 296.4,49.8 295.2,49.8C294,49.8 292.9,48.9 292.9,47.6C292.9,46.3 293.9,45.3 295.1,45.3C296.3,45.3 297.3,46.2 297.3,47.5" style="fill:rgb(180,73,53);fill-rule:nonzero;"/>
                <path d="M303.3,47.5C303.3,48.8 302.3,50.1 301,50.1C299.8,50.1 298.6,48.9 298.6,47.6C298.6,46.3 299.7,45.2 300.9,45.2C302.1,45.2 303.3,46.2 303.3,47.5" style="fill:rgb(180,73,53);fill-rule:nonzero;"/>
                <path d="M308.7,47.2C308.7,48.4 308.1,49.5 307,49.5C305.9,49.5 305.1,48.5 305,47.3C305,46.1 305.7,45.1 306.8,45C307.9,45 308.7,46 308.7,47.1" style="fill:rgb(180,73,53);fill-rule:nonzero;"/>
                <path d="M314.9,46.9C314.9,48 314.1,48.9 313.1,48.9C312.1,48.9 311.2,48.1 311.1,47.1C311.1,46 311.9,45 312.9,45C313.9,45 314.8,45.9 314.9,46.9" style="fill:rgb(180,73,53);fill-rule:nonzero;"/>
                <path d="M321.1,46.5C321.2,47.8 320.2,49.2 319,49.3C317.8,49.3 316.7,48.2 316.6,46.9C316.6,45.6 317.4,44.7 318.7,44.6C320,44.5 321.1,45.2 321.2,46.5" style="fill:rgb(180,73,53);fill-rule:nonzero;"/>
                <path d="M326.5,45.9C326.6,47 326,47.9 324.9,48C323.8,48.1 322.9,47.4 322.8,46.3C322.7,45.2 323.5,44 324.5,43.9C325.5,43.8 326.4,44.8 326.5,45.9" style="fill:rgb(180,73,53);fill-rule:nonzero;"/>
                <path d="M332.9,45.1C333.1,46.4 332.2,47.7 331,47.9C329.8,48.1 328.9,47 328.7,45.7C328.5,44.4 329.2,43 330.4,42.9C331.6,42.7 332.8,43.9 333,45.2" style="fill:rgb(180,73,53);fill-rule:nonzero;"/>
                <path d="M338.4,44.4C338.6,45.6 337.9,46.5 336.8,46.7C335.7,46.9 334.6,46.2 334.4,45C334.2,43.8 335.1,42.7 336.2,42.6C337.3,42.4 338.2,43.3 338.4,44.5" style="fill:rgb(180,73,53);fill-rule:nonzero;"/>
                <path d="M344,43.6C344.2,44.6 343.3,45.7 342.4,45.8C341.4,46 340.6,45.1 340.5,44.1C340.3,43.1 340.9,42.2 341.9,42C342.9,41.8 343.9,42.5 344.1,43.5" style="fill:rgb(180,73,53);fill-rule:nonzero;"/>
                <path d="M350.5,42.5C350.7,43.8 350,45 348.7,45.2C347.4,45.4 346.3,44.5 346.1,43.2C345.9,41.9 346.6,40.5 347.9,40.3C349.2,40.1 350.3,41.2 350.5,42.5" style="fill:rgb(180,73,53);fill-rule:nonzero;"/>
                <path d="M357,41.4C357.2,42.7 356.3,44 355.1,44.2C353.9,44.4 352.7,43.5 352.5,42.2C352.3,40.9 353.2,39.9 354.4,39.7C355.6,39.5 356.9,40.2 357.1,41.5" style="fill:rgb(180,73,53);fill-rule:nonzero;"/>
                <path d="M362.4,40.4C362.6,41.6 362,42.7 360.9,42.9C359.8,43.1 358.6,42.3 358.4,41.2C358.2,40 359.1,39.1 360.2,38.9C361.3,38.7 362.3,39.3 362.5,40.5" style="fill:rgb(180,73,53);fill-rule:nonzero;"/>
                <path d="M368.5,39.3C368.7,40.6 368,41.6 366.8,41.9C365.6,42.1 364.4,41.5 364.2,40.2C364,38.9 364.8,37.8 366,37.6C367.2,37.4 368.3,38.1 368.6,39.4" style="fill:rgb(180,73,53);fill-rule:nonzero;"/>
                <path d="M374.5,38.1C374.8,39.4 373.9,40.8 372.7,41C371.5,41.2 370.1,40.2 369.9,39C369.7,37.7 370.6,36.5 371.8,36.3C373,36.1 374.3,36.9 374.5,38.1" style="fill:rgb(180,73,53);fill-rule:nonzero;"/>
                <path d="M379.7,37.1C379.9,38.2 379.4,39.5 378.4,39.7C377.3,39.9 376.3,39 376.1,37.8C375.9,36.6 376.4,35.5 377.5,35.3C378.6,35.1 379.5,36 379.7,37.1" style="fill:rgb(180,73,53);fill-rule:nonzero;"/>
                <path d="M385.8,35.8C386,36.8 385.3,37.9 384.3,38.1C383.3,38.3 382.3,37.7 382.1,36.6C381.9,35.6 382.5,34.4 383.5,34.2C384.5,34 385.5,34.8 385.8,35.8" style="fill:rgb(180,73,53);fill-rule:nonzero;"/>
                <path d="M391.9,34.5C392.2,35.8 391.4,37.3 390.2,37.5C389,37.8 387.7,36.7 387.5,35.5C387.2,34.2 388,33.2 389.2,33C390.4,32.7 391.6,33.3 391.9,34.6" style="fill:rgb(180,73,53);fill-rule:nonzero;"/>
                <path d="M397.2,33.3C397.5,34.4 396.9,35.4 395.9,35.6C394.9,35.8 393.8,35.2 393.6,34.1C393.4,33 394,31.8 395,31.6C396,31.4 397,32.2 397.3,33.3" style="fill:rgb(180,73,53);fill-rule:nonzero;"/>
                <path d="M403.5,31.8C403.8,33.1 403.1,34.5 401.9,34.7C400.7,35 399.7,34 399.4,32.7C399.1,31.4 399.6,30 400.8,29.7C402,29.4 403.3,30.4 403.6,31.7" style="fill:rgb(180,73,53);fill-rule:nonzero;"/>
                <path d="M408.9,30.5C409.2,31.7 408.6,32.7 407.5,32.9C406.4,33.2 405.3,32.6 405,31.4C404.7,30.2 405.4,29.1 406.5,28.8C407.6,28.5 408.6,29.3 408.9,30.5" style="fill:rgb(180,73,53);fill-rule:nonzero;"/>
                <path d="M414.4,29.2C414.7,30.2 413.9,31.3 413,31.6C412,31.8 411.2,31.1 410.9,30.1C410.6,29.1 411.1,28.1 412.1,27.9C413.1,27.7 414.2,28.2 414.4,29.2" style="fill:rgb(180,73,53);fill-rule:nonzero;"/>
                <path d="M420.7,27.5C421,28.8 420.4,30.1 419.2,30.4C418,30.7 416.8,29.9 416.4,28.6C416.1,27.3 416.7,25.9 417.9,25.6C419.1,25.3 420.3,26.2 420.7,27.5" style="fill:rgb(180,73,53);fill-rule:nonzero;"/>
                <path d="M427.1,25.8C427.4,27.1 426.6,28.5 425.5,28.8C424.3,29.1 423,28.3 422.7,27C422.4,25.7 423.1,24.6 424.3,24.3C425.5,24 426.8,24.6 427.2,25.8" style="fill:rgb(180,73,53);fill-rule:nonzero;"/>
                <path d="M438.5,54C438.8,55.1 438.3,56.3 437.2,56.6C436.1,56.9 434.8,56.3 434.5,55.1C434.2,54 435,52.9 436.1,52.6C437.2,52.3 438.2,52.8 438.5,54" style="fill:rgb(180,73,53);fill-rule:nonzero;"/>
                <path d="M154.8,68.2C154.8,69.5 153.7,70.3 152.5,70.3C151.3,70.3 150.3,69.3 150.3,68C150.3,66.7 151.5,65.8 152.7,65.9C153.9,65.9 154.8,67 154.8,68.3" style="fill:rgb(180,73,53);fill-rule:nonzero;"/>
                <path d="M160.9,68.6C160.8,69.9 159.6,71 158.4,70.9C157.2,70.9 156.2,69.5 156.2,68.2C156.2,66.9 157.5,66 158.7,66C159.9,66 161,67.2 160.9,68.5" style="fill:rgb(180,73,53);fill-rule:nonzero;"/>
                <path d="M166.2,69.1C166.1,70.3 165.2,71.3 164.2,71.2C163.1,71.1 162.4,69.9 162.6,68.8C162.7,67.6 163.6,66.7 164.7,66.8C165.8,66.9 166.4,68 166.3,69.2" style="fill:rgb(180,73,53);fill-rule:nonzero;"/>
                <path d="M172.4,69.8C172.3,70.8 171.3,71.6 170.3,71.5C169.3,71.4 168.5,70.4 168.7,69.4C168.8,68.4 169.8,67.5 170.8,67.6C171.8,67.7 172.6,68.8 172.4,69.8" style="fill:rgb(180,73,53);fill-rule:nonzero;"/>
                <path d="M178.6,70.6C178.4,71.9 177.2,73 176,72.8C174.8,72.6 174,71.3 174.1,70C174.3,68.7 175.4,68 176.6,68.2C177.8,68.4 178.8,69.3 178.6,70.6" style="fill:rgb(180,73,53);fill-rule:nonzero;"/>
                <path d="M184,71.4C183.8,72.5 183,73.2 181.9,73.1C180.8,72.9 180.1,72 180.2,70.9C180.4,69.8 181.4,68.9 182.5,69C183.6,69.2 184.2,70.3 184,71.4" style="fill:rgb(180,73,53);fill-rule:nonzero;"/>
                <path d="M190.4,72.4C190.2,73.7 189,74.7 187.8,74.5C186.6,74.3 186,73 186.2,71.7C186.4,70.4 187.4,69.3 188.6,69.5C189.8,69.7 190.6,71.1 190.4,72.4" style="fill:rgb(180,73,53);fill-rule:nonzero;"/>
                <path d="M195.9,73.3C195.7,74.5 194.8,75.2 193.7,75C192.6,74.8 191.8,73.8 192,72.7C192.2,71.5 193.3,70.7 194.4,70.9C195.5,71.1 196.1,72.2 195.9,73.4" style="fill:rgb(180,73,53);fill-rule:nonzero;"/>
                <path d="M201.5,74.3C201.3,75.3 200.2,76 199.2,75.9C198.2,75.7 197.7,74.7 197.9,73.7C198.1,72.7 198.9,72 199.9,72.2C200.9,72.4 201.7,73.3 201.5,74.4" style="fill:rgb(180,73,53);fill-rule:nonzero;"/>
                <path d="M208,75.5C207.8,76.8 206.6,77.7 205.4,77.5C204.1,77.3 203.4,76.1 203.6,74.7C203.8,73.4 205,72.3 206.3,72.6C207.6,72.8 208.3,74.2 208,75.5" style="fill:rgb(180,73,53);fill-rule:nonzero;"/>
                <path d="M214.4,76.6C214.2,77.9 212.9,78.8 211.6,78.6C210.4,78.4 209.6,77.1 209.8,75.8C210,74.5 211.2,73.8 212.4,74C213.6,74.2 214.6,75.3 214.4,76.6" style="fill:rgb(180,73,53);fill-rule:nonzero;"/>
                <path d="M219.9,77.5C219.7,78.7 218.7,79.5 217.6,79.3C216.5,79.1 215.6,78 215.8,76.8C216,75.6 217.2,75 218.3,75.2C219.4,75.4 220.1,76.3 219.9,77.5" style="fill:rgb(180,73,53);fill-rule:nonzero;"/>
                <path d="M226,78.5C225.8,79.8 224.7,80.5 223.5,80.3C222.3,80.1 221.4,79.1 221.6,77.8C221.8,76.5 223,75.7 224.2,75.9C225.4,76.1 226.2,77.2 226,78.5" style="fill:rgb(180,73,53);fill-rule:nonzero;"/>
                <path d="M232.1,79.4C231.9,80.7 230.6,81.7 229.4,81.6C228.2,81.4 227.2,80 227.4,78.8C227.6,77.5 228.9,76.6 230.1,76.8C231.3,77 232.3,78.2 232.1,79.5" style="fill:rgb(180,73,53);fill-rule:nonzero;"/>
                <path d="M237.4,80.1C237.2,81.3 236.4,82.3 235.3,82.1C234.2,81.9 233.6,80.7 233.8,79.6C234,78.4 234.9,77.5 236,77.7C237.1,77.9 237.7,79 237.5,80.1" style="fill:rgb(180,73,53);fill-rule:nonzero;"/>
                <path d="M243.5,80.9C243.4,81.9 242.4,82.7 241.4,82.6C240.4,82.5 239.6,81.5 239.8,80.5C239.9,79.5 240.9,78.6 241.9,78.7C242.9,78.8 243.6,79.9 243.5,81" style="fill:rgb(180,73,53);fill-rule:nonzero;"/>
                <path d="M249.8,81.7C249.7,83 248.4,84.1 247.2,84C246,83.9 245.1,82.5 245.3,81.2C245.5,79.9 246.5,79.2 247.8,79.3C249,79.4 250,80.4 249.9,81.7" style="fill:rgb(180,73,53);fill-rule:nonzero;"/>
                <path d="M255.2,82.2C255.1,83.3 254.3,84.1 253.2,84C252.1,83.9 251.3,83 251.4,81.8C251.5,80.7 252.5,79.7 253.6,79.8C254.7,79.8 255.3,81 255.2,82.1" style="fill:rgb(180,73,53);fill-rule:nonzero;"/>
                <path d="M261.6,82.8C261.6,84.1 260.4,85.2 259.1,85.1C257.9,85 257.2,83.7 257.3,82.4C257.4,81.1 258.3,79.9 259.5,80C260.7,80.1 261.6,81.5 261.5,82.8" style="fill:rgb(180,73,53);fill-rule:nonzero;"/>
                <path d="M267.2,83.1C267.2,84.3 266.3,85.1 265.1,85C263.9,85 263,84 263.1,82.8C263.1,81.6 264.2,80.7 265.3,80.8C266.4,80.9 267.2,81.9 267.1,83.1" style="fill:rgb(180,73,53);fill-rule:nonzero;"/>
                <path d="M272.9,83.5C272.9,84.6 271.9,85.4 270.8,85.4C269.8,85.4 269.2,84.4 269.2,83.4C269.2,82.4 270,81.6 270.9,81.6C271.9,81.6 272.8,82.5 272.8,83.5" style="fill:rgb(180,73,53);fill-rule:nonzero;"/>
                <path d="M279.4,83.6C279.4,85 278.4,86 277.1,86C275.8,86 274.9,84.9 274.9,83.5C274.9,82.1 275.9,80.9 277.2,81C278.5,81 279.4,82.3 279.4,83.6" style="fill:rgb(180,73,53);fill-rule:nonzero;"/>
                <path d="M286,83.6C286,84.9 284.9,86 283.6,86C282.4,86 281.3,84.9 281.3,83.6C281.3,82.3 282.3,81.4 283.6,81.4C284.8,81.4 286,82.3 286,83.6" style="fill:rgb(180,73,53);fill-rule:nonzero;"/>
                <path d="M291.6,83.4C291.6,84.6 290.8,85.6 289.7,85.6C288.6,85.6 287.5,84.7 287.5,83.5C287.5,82.3 288.5,81.5 289.6,81.5C290.7,81.5 291.6,82.2 291.6,83.4" style="fill:rgb(180,73,53);fill-rule:nonzero;"/>
                <path d="M297.7,83.1C297.7,84.4 296.9,85.4 295.7,85.4C294.5,85.4 293.3,84.6 293.3,83.3C293.3,82 294.2,81 295.4,80.9C296.6,80.9 297.6,81.7 297.7,83" style="fill:rgb(180,73,53);fill-rule:nonzero;"/>
                <path d="M303.8,82.5C303.9,83.8 303,85.2 301.7,85.3C300.5,85.4 299.2,84.3 299.1,83C299,81.7 300,80.6 301.2,80.5C302.4,80.5 303.6,81.3 303.7,82.6" style="fill:rgb(180,73,53);fill-rule:nonzero;"/>
                <path d="M309.2,81.9C309.4,83.1 308.8,84.2 307.7,84.4C306.6,84.5 305.7,83.5 305.6,82.4C305.5,81.2 306.1,80.1 307.2,80C308.3,79.9 309.1,80.8 309.3,82" style="fill:rgb(180,73,53);fill-rule:nonzero;"/>
                <path d="M315.3,80.9C315.5,81.9 314.7,82.9 313.7,83.1C312.7,83.3 311.7,82.5 311.6,81.5C311.5,80.5 312.2,79.3 313.2,79.2C314.2,79.1 315.2,79.9 315.4,80.9" style="fill:rgb(180,73,53);fill-rule:nonzero;"/>
                <path d="M321.5,80C321.7,81.3 320.8,82.7 319.6,82.9C318.4,83.1 317.2,82 317,80.7C316.8,79.4 317.7,78.4 318.9,78.3C320.1,78.1 321.3,78.7 321.5,80" style="fill:rgb(180,73,53);fill-rule:nonzero;"/>
                <path d="M326.9,79.1C327.1,80.2 326.5,81.2 325.4,81.3C324.3,81.5 323.3,80.8 323.1,79.7C322.9,78.6 323.6,77.4 324.7,77.2C325.8,77 326.7,77.9 326.8,79.1" style="fill:rgb(180,73,53);fill-rule:nonzero;"/>
                <path d="M333.2,78C333.4,79.3 332.6,80.6 331.4,80.8C330.2,81 329.2,79.9 329,78.7C328.8,77.4 329.4,76 330.6,75.8C331.8,75.6 333,76.7 333.3,78" style="fill:rgb(180,73,53);fill-rule:nonzero;"/>
                <path d="M338.8,77.1C339,78.3 338.4,79.2 337.2,79.4C336.1,79.6 335,79 334.8,77.8C334.6,76.6 335.4,75.5 336.5,75.3C337.6,75.1 338.6,75.9 338.8,77.1" style="fill:rgb(180,73,53);fill-rule:nonzero;"/>
                <path d="M344.3,76.2C344.5,77.2 343.7,78.3 342.7,78.5C341.7,78.7 340.9,77.9 340.7,76.9C340.5,75.9 341,75 342,74.8C343,74.6 344.1,75.3 344.2,76.3" style="fill:rgb(180,73,53);fill-rule:nonzero;"/>
                <path d="M350.8,75C351,76.3 350.3,77.5 349,77.8C347.7,78 346.6,77.1 346.4,75.8C346.2,74.5 346.9,73.1 348.1,72.9C349.4,72.7 350.5,73.7 350.7,75" style="fill:rgb(180,73,53);fill-rule:nonzero;"/>
                <path d="M357.3,73.8C357.5,75.1 356.6,76.4 355.4,76.6C354.2,76.8 353,75.9 352.7,74.6C352.5,73.3 353.3,72.2 354.5,72C355.7,71.8 357,72.5 357.2,73.7" style="fill:rgb(180,73,53);fill-rule:nonzero;"/>
                <path d="M362.8,72.7C363,73.9 362.4,75 361.3,75.2C360.2,75.4 359,74.7 358.8,73.5C358.6,72.3 359.5,71.4 360.6,71.2C361.7,71 362.7,71.6 362.9,72.8" style="fill:rgb(180,73,53);fill-rule:nonzero;"/>
                <path d="M368.8,71.6C369.1,72.9 368.3,73.9 367.1,74.2C365.9,74.4 364.7,73.8 364.4,72.5C364.2,71.2 365,70.1 366.2,69.8C367.4,69.6 368.5,70.3 368.8,71.6" style="fill:rgb(180,73,53);fill-rule:nonzero;"/>
                <path d="M374.8,70.3C375.1,71.6 374.2,73 373,73.3C371.8,73.6 370.4,72.6 370.2,71.3C369.9,70 370.8,68.8 372,68.5C373.2,68.2 374.5,69 374.8,70.3" style="fill:rgb(180,73,53);fill-rule:nonzero;"/>
                <path d="M380.1,69.2C380.3,70.3 379.9,71.6 378.8,71.8C377.7,72 376.7,71.1 376.5,70C376.3,68.9 376.8,67.7 377.9,67.4C379,67.2 379.9,68 380.2,69.2" style="fill:rgb(180,73,53);fill-rule:nonzero;"/>
                <path d="M386.1,67.8C386.3,68.8 385.6,69.9 384.7,70.1C383.7,70.3 382.7,69.7 382.4,68.6C382.2,67.6 382.8,66.4 383.8,66.2C384.8,66 385.9,66.8 386.1,67.8" style="fill:rgb(180,73,53);fill-rule:nonzero;"/>
                <path d="M392.3,66.4C392.6,67.7 391.8,69.2 390.6,69.4C389.4,69.7 388.1,68.7 387.8,67.4C387.5,66.1 388.3,65.1 389.5,64.8C390.7,64.5 391.9,65.1 392.2,66.3" style="fill:rgb(180,73,53);fill-rule:nonzero;"/>
                <path d="M397.5,65.1C397.8,66.2 397.2,67.2 396.2,67.5C395.2,67.8 394.1,67.2 393.8,66.1C393.5,65 394.2,63.8 395.2,63.5C396.2,63.2 397.2,64.1 397.5,65.2" style="fill:rgb(180,73,53);fill-rule:nonzero;"/>
                <path d="M403.8,63.6C404.1,64.9 403.4,66.3 402.2,66.6C401,66.9 399.9,65.9 399.6,64.7C399.3,63.4 399.7,62 400.9,61.7C402.1,61.4 403.4,62.4 403.7,63.6" style="fill:rgb(180,73,53);fill-rule:nonzero;"/>
                <path d="M409.2,62.1C409.5,63.3 409,64.3 407.9,64.6C406.8,64.9 405.6,64.4 405.3,63.2C405,62 405.7,60.9 406.8,60.6C407.9,60.3 408.9,61 409.2,62.2" style="fill:rgb(180,73,53);fill-rule:nonzero;"/>
                <path d="M414.6,60.6C414.9,61.6 414.2,62.7 413.3,63C412.3,63.3 411.4,62.6 411.2,61.6C410.9,60.6 411.3,59.6 412.3,59.3C413.2,59 414.4,59.5 414.7,60.5" style="fill:rgb(180,73,53);fill-rule:nonzero;"/>
                <path d="M420.9,58.6C421.3,59.9 420.7,61.2 419.5,61.6C418.3,62 417,61.2 416.7,59.9C416.3,58.6 416.9,57.2 418.1,56.8C419.3,56.4 420.6,57.3 421,58.6" style="fill:rgb(180,73,53);fill-rule:nonzero;"/>
                <path d="M427.2,56.6C427.6,57.8 426.9,59.3 425.7,59.7C424.5,60.1 423.2,59.3 422.8,58.1C422.4,56.9 423.1,55.7 424.3,55.3C425.5,54.9 426.8,55.4 427.2,56.6" style="fill:rgb(180,73,53);fill-rule:nonzero;"/>
                <path d="M432.4,54.8C432.8,55.9 432.4,57.1 431.3,57.5C430.2,57.9 428.9,57.3 428.5,56.2C428.1,55.1 428.8,54 429.9,53.6C431,53.2 432,53.6 432.4,54.8" style="fill:rgb(180,73,53);fill-rule:nonzero;"/>
            </g>
        </g>
    </g>
</svg>
