<?xml version="1.0" encoding="UTF-8"?>
<svg xmlns="http://www.w3.org/2000/svg" version="1.1" xmlns:xlink="http://www.w3.org/1999/xlink" viewBox="0 0 453.5 113.4">
  <defs>
    <style>
      .cls-1 {
        fill: #ffcb5a;
      }

      .cls-2 {
        fill: #f7f0e5;
      }

      .cls-3 {
        fill: none;
      }

      .cls-4 {
        fill: #373b38;
      }

      .cls-5 {
        fill: #b44935;
      }

      .cls-6 {
        clip-path: url(#clippath);
      }
    </style>
    <clipPath id="clippath">
      <rect class="cls-3" width="453.5" height="113.4"/>
    </clipPath>
  </defs>
  <!-- Generator: Adobe Illustrator 28.6.0, SVG Export Plug-In . SVG Version: 1.2.0 Build 709)  -->
  <g>
    <g id="Layer_1">
      <g class="cls-6">
        <path class="cls-1" d="M3.3,63.7c3.4-2.3,7.3-4.6,11.2-6.4h.3c0,0,25.5-7,25.5-7,25.7-6.9,51.7-12.7,78.1-16,17.7-2.2,35.7-3.2,53.5-2,10.6.8,21.3,2.3,31.8,4.8,1.4.3,3.2.7,4.6.9,22.5,3.5,45.5,4.7,68.2,5.5,3.8,0,7.6.2,11.3,0,2.7,0,5.7-.2,8.3-.2,14.9,0,30.7-1.9,45.5-3.5,30.5-3.1,60.1-11.4,89.7-19.5l4-1.1,1.2,4.1c.8,2.6,9.5,32.4,10.1,34-18.7,5.3-37.5,10.5-56.5,14.9-28.5,6.7-57.4,12.3-86.6,14.9l-6.8.5c-13.7,1.4-27.5,0-41-1.6-17.7-2.2-36-3.9-53.6-6.9-8.8-1.4-17.3-3.8-26.3-4.9-17.4-2.3-35.1-3.3-52.7-2-26.6,2.1-52.7,7.9-78.4,14.8-7.3,2-18.6,4.9-25.8,7.4h-.5c0,.1-.5.1-.5.1h-3.5s-2.8,0-2.8,0c-3.1-10.1-5.9-20.6-8.3-30.8M10.7,66.9c2.9,7.7,5.4,15,7.6,22.7l-3.9-2.9h3.5s-1.1.2-1.1.2c2.9-.8,6.5-2.2,9.6-3,22.7-6.3,45.8-12.3,69-16.1,8.9-1.4,17.9-2.6,27-3.3,13.5-1.2,27.4-2.4,41-.8,11.3,1,22.5,2.8,33.6,5.4,10.8,2.1,21.8,3.6,32.8,5,13.2,1.7,26.6,2.9,39.9,3.8,6.4.4,13.1.9,19.4.6,15.4-1,31.1-2.7,46.3-5.2,26.4-4.2,52.5-10.1,78.4-16.7,8.7-2.2,17.3-4.5,25.9-6.8l-3.1,5.6-8.4-29.8,5.3,3c-31.8,8.8-64.6,16-97.3,20.8-8.6,1-17.9,1.5-26.6,2.1-2.1.1-4.7.3-6.8.4-4.6,0-10.3.3-14.8.4-4,.3-7.8.2-11.7.2-23.3-.6-46.6-1.6-69.7-5-1.5-.2-3.6-.7-5.1-1-44.1-9.9-89.8-2.5-133.4,6.5-16.6,3.6-34.6,8.3-51.1,12.3l.7-.3c-2.1,1-4.3,1.5-6.9,2.1"/>
        <path class="cls-5" d="M15.9,86.3c-2.5-6.2-4.6-13.1-6.1-19.6,34.8-9.7,70.1-18.8,106.1-23.6,26.3-3.4,53.2-4.1,79.4,1,6,1.4,12.8,2.8,18.9,3.6,19.2,2.5,38.6,3.7,58,4.4,5.4.1,10.5.4,15.8,0,3.1-.2,6.7-.5,9.8-.7,8.7-.6,17.3-.6,25.9-1.2,12.9-1.1,25.7-2.9,38.5-5.1,21.2-3.6,42.4-8.6,63.1-14.4l4.2-1.2,1.3,4.3c1,3,4.3,14.5,5.2,17.4-18.4,5.2-36.8,10-55.4,14.2-30,6.8-60.4,12.1-91.1,13.9-9.1.4-30.6-2.3-40-3-21.8-2.1-43.6-4.8-65-9.7-12.5-2.2-25.4-3.7-38.2-3.4-38.9.9-77.3,9.6-114.7,19.9l-6.3,1.7-1.6.4c-2.4.8-5.4,1.1-7.7.9M19.8,79.5l.2-.3c.4-.7.4-1.2.6-1.4,0,0,.1,0,.2-.1l.7-.2,1.6-.4c50.8-13.7,103.5-25.7,156.4-20.5,4.4.5,8.9,1.5,13.3,2.5,10.4,2.5,21,3.9,31.8,5.4,17.2,2.2,34.4,4.2,51.7,5.1,4.1.2,8.6.4,12.5.2,47.6-3.1,94.2-13.8,140.3-26.2l-3.2,5.7-3.7-13,5.5,3.1c-19,5.1-38.3,9.4-57.6,12.9-15.1,2.6-30.3,4.6-45.6,6-8.7,1-17.4,1.9-26.1,2.1-17.5,1.1-35.2.3-52.6-.7-12-.7-24.1-1.7-36.1-3.3-5.1-.7-11.1-2-16.2-3.1-8.3-1.6-16.8-2.5-25.3-2.9-25.6-1.3-51.4,1.9-76.6,6.4-25.5,4.5-50.7,10.6-75.9,16.9l3.1-5.4c.8,3.8.8,7.3,1.1,11.3"/>
        <path class="cls-4" d="M15.5,73.1c33.5-8.8,67.9-19.3,102.4-22.9,15.3-1.7,30.8-2.6,46.3-2,4.3.3,8.9,1.3,13.2,1.4,6.6.6,13.3,1.5,19.8,2.9,3.8.8,8.9,1.9,12.6,2.5,21.3,3.1,43,4.7,64.5,5.8,4.2.2,8.4.4,12.6.2,1.9,0,4.5-.3,6.4-.5,5.4-.5,10.8-.4,16.2-.7,2.6-.1,7.1-.7,9.7-.9,10.7-1.2,21.5-2.7,32.1-4.5,8.6-1,17.1-2.4,25.6-4.3,17-3.5,33.8-7.5,50.5-12.3l2,7.2c-21,5.3-42.7,10.5-63.9,14.6-4.3.7-8.5,2.3-12.8,3-12.8,2.3-26.2,3.8-39.1,4.9-8.5.8-19.6,1.9-28,2.2-23.6-.4-47.2-2.5-70.5-6-6.1-.9-13.5-2.4-19.5-3.9-8.3-1.8-16.8-3.2-25.3-3.6-4.3.1-8.5-.1-12.8-.4-30.1-.4-60.2,5.4-89.4,12.4-12.1,3-25.8,6.1-38,8.8-4.2,1-8.5,1.9-12.8,2.7l-1.9-6.9"/>
        <path class="cls-2" d="M61.7,59.7c.7,2.8-4.6,4-5.2,1.2-.7-2.8,4.6-4.1,5.2-1.2"/>
        <path class="cls-2" d="M68.8,58.1c.6,3.2-4.7,4.3-5.5,1.2-.6-3,4.8-4.2,5.5-1.2"/>
        <path class="cls-2" d="M75.1,56.8c.7,2.9-3.8,3.8-4.3.9-.7-2.8,3.9-3.8,4.3-.9"/>
        <path class="cls-2" d="M82.3,55.3c.5,2.4-3.9,3.3-4.4.9-.5-2.6,3.9-3.4,4.4-.9"/>
        <path class="cls-2" d="M89.6,54c.5,3.2-4.7,4.3-5.3,1-.6-2.8,4.9-3.7,5.3-1"/>
        <path class="cls-2" d="M96,52.9c.5,2.6-4.1,3.2-4.4.8-.5-2.7,4.1-3.6,4.4-.8"/>
        <path class="cls-2" d="M103.6,51.7c.5,3-4.7,4.1-5,.8-.7-3.4,4.6-3.9,5-.8"/>
        <path class="cls-2" d="M110.2,50.8c.5,2.7-4.5,3.2-4.8.6-.4-2.7,4.5-3.6,4.8-.6"/>
        <path class="cls-2" d="M116.8,50c.2,2.4-4.1,3.1-4.3.5-.4-2.5,4-2.8,4.3-.5"/>
        <path class="cls-2" d="M124.6,49.2c.4,3.1-5,3.6-5.3.5-.4-3.3,5-3.9,5.3-.5"/>
        <path class="cls-2" d="M132.4,48.5c.2,3.1-5.2,3.6-5.5.4-.3-2.9,5.3-3.3,5.5-.4"/>
        <path class="cls-2" d="M139,48.1c.2,2.9-4.7,3-4.9.3-.2-2.5,4.9-3,4.9-.3"/>
        <path class="cls-2" d="M146.4,47.8c.2,2.9-5.2,3-5.3.2-.2-2.9,5.3-3.2,5.3-.2"/>
        <path class="cls-2" d="M153.6,47.7c0,3.2-5.5,3.3-5.6,0,0-3,5.6-3.1,5.6,0"/>
        <path class="cls-2" d="M160.1,47.8c0,2.9-4.5,2.8-4.4,0,0-2.9,4.6-2.8,4.4,0"/>
        <path class="cls-2" d="M167.4,48.1c-.1,2.5-4.6,2.2-4.5-.2.1-2.7,4.6-2.4,4.5.2"/>
        <path class="cls-2" d="M174.9,48.6c-.3,3.2-5.6,2.9-5.4-.4,0-2.9,5.7-2.3,5.4.4"/>
        <path class="cls-2" d="M181.3,49.3c-.2,2.6-4.8,2-4.5-.5.2-2.7,4.9-2.3,4.5.5"/>
        <path class="cls-2" d="M188.9,50.4c-.5,3-5.6,2.6-5-.7.3-3.4,5.6-2.4,5,.7"/>
        <path class="cls-2" d="M195.4,51.6c-.4,2.7-5.2,1.6-4.7-.9.4-2.7,5.4-2,4.7.9"/>
        <path class="cls-2" d="M202,53.1c-.5,2.3-4.9,1.7-4.2-.9.4-2.5,4.7-1.3,4.2.9"/>
        <path class="cls-2" d="M209.7,54.5c-.4,3.1-5.9,2.2-5.2-.9.6-3.3,5.8-2.4,5.2.9"/>
        <path class="cls-2" d="M217.4,55.5c-.4,3.1-5.9,2.4-5.5-.7.4-2.9,5.8-2.1,5.5.7"/>
        <path class="cls-2" d="M224,56.2c-.2,2.9-5.2,2.2-4.9-.5.3-2.5,5.3-2.1,4.9.5"/>
        <path class="cls-2" d="M231.3,56.9c-.2,2.9-5.6,2.3-5.3-.5.2-2.9,5.6-2.5,5.3.5"/>
        <path class="cls-2" d="M238.6,57.5c-.3,3.2-5.8,2.8-5.6-.4.3-3,5.8-2.6,5.6.4"/>
        <path class="cls-2" d="M245,57.9c0,2.9-4.7,2.6-4.4-.3.1-2.8,4.7-2.6,4.4.3"/>
        <path class="cls-2" d="M252.3,58.4c-.1,2.5-4.6,2.2-4.5-.3.2-2.6,4.6-2.3,4.5.3"/>
        <path class="cls-2" d="M259.8,58.8c-.2,3.3-5.6,3.1-5.4-.3,0-2.8,5.6-2.5,5.4.3"/>
        <path class="cls-2" d="M266.2,59c0,2.6-4.7,2.3-4.5-.2.1-2.7,4.7-2.7,4.5.2"/>
        <path class="cls-2" d="M273.9,59.3c0,3.1-5.3,3.2-5.1-.2,0-3.4,5.2-3,5.1.2"/>
        <path class="cls-2" d="M280.5,59.4c.1,2.8-4.9,2.5-4.8,0,0-2.7,4.9-2.8,4.8,0"/>
        <path class="cls-2" d="M287.3,59.3c.2,2.4-4.4,2.8-4.3.1-.1-2.5,4.1-2.4,4.3-.1"/>
        <path class="cls-2" d="M295.1,58.7c.3,3.1-5.1,3.5-5.3.4-.3-3.3,5.1-3.7,5.3-.4"/>
        <path class="cls-2" d="M302.9,58.3c.2,3.1-5.3,3.5-5.5.3-.2-2.9,5.3-3.2,5.5-.3"/>
        <path class="cls-2" d="M309.5,57.8c.3,2.9-4.7,3-4.9.3-.2-2.5,4.8-3,4.9-.3"/>
        <path class="cls-2" d="M316.8,57.3c.3,2.9-5.2,3.2-5.3.4-.2-2.9,5.2-3.4,5.3-.4"/>
        <path class="cls-2" d="M324,56.7c.3,3.2-5.3,3.7-5.6.5-.2-3,5.3-3.5,5.6-.5"/>
        <path class="cls-2" d="M330.4,56c.4,2.9-4.2,3.4-4.4.5-.4-2.8,4.2-3.3,4.4-.5"/>
        <path class="cls-2" d="M337.7,55.2c.3,2.4-4.2,3-4.5.5-.3-2.6,4.1-3.1,4.5-.5"/>
        <path class="cls-2" d="M345.1,54.3c.4,3.2-5,4-5.4.7-.4-2.8,5.1-3.4,5.4-.7"/>
        <path class="cls-2" d="M351.5,53.4c.5,2.6-4.2,3.1-4.5.6-.4-2.7,4.1-3.5,4.5-.6"/>
        <path class="cls-2" d="M359.1,52.2c.5,3.1-4.7,4.1-5,.8-.7-3.4,4.5-3.9,5-.8"/>
        <path class="cls-2" d="M365.7,51.1c.6,2.7-4.4,3.4-4.7.8-.5-2.7,4.4-3.7,4.7-.8"/>
        <path class="cls-2" d="M372.3,50c.4,2.3-3.9,3.4-4.2.8-.6-2.5,3.8-3,4.2-.8"/>
        <path class="cls-2" d="M380,48.5c.7,3.1-4.7,4.1-5.2,1-.7-3.3,4.6-4.3,5.2-1"/>
        <path class="cls-2" d="M387.6,46.9c.6,3-4.8,4.2-5.4,1.1-.6-2.9,4.8-3.9,5.4-1.1"/>
        <path class="cls-2" d="M394.1,45.4c.7,2.8-4.2,3.7-4.8,1.1-.5-2.4,4.3-3.7,4.8-1.1"/>
        <path class="cls-2" d="M380.1,57.7c-.7-2.8,4.6-3.9,5.1-1.2.7,2.8-4.6,4.1-5.1,1.2"/>
        <path class="cls-2" d="M373.1,59.2c-.6-3.2,4.7-4.3,5.4-1.2.6,3-4.8,4.2-5.4,1.2"/>
        <path class="cls-2" d="M366.9,60.6c-.7-2.9,3.8-3.7,4.3-.9.7,2.8-3.8,3.7-4.3.9"/>
        <path class="cls-2" d="M359.8,62c-.5-2.4,3.9-3.3,4.4-.9.5,2.6-3.8,3.4-4.4.9"/>
        <path class="cls-2" d="M352.5,63.4c-.6-3.2,4.6-4.3,5.3-1,.6,2.8-4.8,3.7-5.3,1"/>
        <path class="cls-2" d="M346.2,64.6c-.6-2.6,4-3.2,4.4-.8.5,2.7-4,3.6-4.4.8"/>
        <path class="cls-2" d="M338.7,65.8c-.5-3.1,4.5-4.1,5-.8.7,3.4-4.5,4-5,.8"/>
        <path class="cls-2" d="M332.2,66.8c-.6-2.7,4.3-3.3,4.7-.7.5,2.7-4.4,3.6-4.7.7"/>
        <path class="cls-2" d="M325.6,67.8c-.3-2.3,3.9-3.2,4.2-.6.5,2.5-3.9,2.9-4.2.6"/>
        <path class="cls-2" d="M317.9,68.8c-.5-3.1,4.9-3.8,5.2-.7.5,3.3-4.9,4-5.2.7"/>
        <path class="cls-2" d="M310.2,69.7c-.3-3.1,5-3.8,5.4-.6.4,2.9-5.1,3.4-5.4.6"/>
        <path class="cls-2" d="M303.7,70.4c-.3-2.9,4.5-3.2,4.8-.5.3,2.5-4.7,3.2-4.8.5"/>
        <path class="cls-2" d="M296.4,71c-.3-2.9,5-3.2,5.3-.4.3,2.9-5.1,3.4-5.3.4"/>
        <path class="cls-2" d="M289.3,71.5c-.2-3.2,5.3-3.6,5.5-.4.2,3-5.3,3.4-5.5.4"/>
        <path class="cls-2" d="M282.9,71.6c0-2.9,4.3-2.9,4.4,0,.2,3-4.6,2.9-4.4,0"/>
        <path class="cls-2" d="M275.6,71.3c.1-2.4,4.5-2.2,4.4.2-.1,2.6-4.6,2.4-4.4-.2"/>
        <path class="cls-2" d="M268.2,70.8c.3-3.2,5.6-3,5.4.4,0,2.8-5.6,2.4-5.4-.4"/>
        <path class="cls-2" d="M261.9,70.4c.1-2.6,4.7-2.1,4.4.4-.2,2.7-4.8,2.5-4.4-.4"/>
        <path class="cls-2" d="M254.3,69.7c.3-3.1,5.4-2.9,5,.5-.2,3.4-5.3,2.7-5-.5"/>
        <path class="cls-2" d="M247.7,69c.1-2.7,5-2.1,4.7.5-.2,2.7-5.1,2.4-4.7-.5"/>
        <path class="cls-2" d="M241.1,68.3c.3-2.4,4.6-2.2,4.2.4-.1,2.6-4.5,1.8-4.2-.4"/>
        <path class="cls-2" d="M233.4,67.5c.3-3.1,5.6-2.5,5.2.6-.3,3.3-5.7,2.7-5.2-.6"/>
        <path class="cls-2" d="M225.7,66.6c.4-3,5.8-2.5,5.4.7-.3,2.9-5.8,2.2-5.4-.7"/>
        <path class="cls-2" d="M219.2,65.8c.3-2.9,5.1-2,4.8.6-.3,2.5-5.3,2-4.8-.6"/>
        <path class="cls-2" d="M212,64.7c.3-2.9,5.6-2,5.2.7-.4,2.9-5.7,2.2-5.2-.7"/>
        <path class="cls-2" d="M204.9,63.6c.6-3.2,5.9-2.3,5.5.9-.5,3-6,2.1-5.5-.9"/>
        <path class="cls-2" d="M198.7,62.5c.4-2.9,4.9-2,4.3.8-.4,2.8-5,2-4.3-.8"/>
        <path class="cls-2" d="M191.5,61c.6-2.4,4.8-1.5,4.3,1-.5,2.5-4.9,1.6-4.3-1"/>
        <path class="cls-2" d="M184.3,59.5c.6-3.2,6-2.2,5.3,1.1-.5,2.7-5.8,1.6-5.3-1.1"/>
        <path class="cls-2" d="M178,58.5c.2-2.6,4.9-1.8,4.4.7-.4,2.7-4.9,2.2-4.4-.7"/>
        <path class="cls-2" d="M170.5,57.6c.3-3.1,5.6-2.7,5,.6-.3,3.4-5.3,2.6-5-.6"/>
        <path class="cls-2" d="M163.9,57.1c0-2.8,5-2.2,4.7.4-.2,2.7-5,2.5-4.7-.4"/>
        <path class="cls-2" d="M157.2,56.7c.1-2.4,4.5-2.5,4.3.2,0,2.5-4.3,2.1-4.3-.2"/>
        <path class="cls-2" d="M149.5,56.7c-.1-3.2,5.4-3.1,5.2,0,0,3.3-5.3,3.3-5.2,0"/>
        <path class="cls-2" d="M141.8,56.8c0-3.1,5.4-3.3,5.4-.1,0,2.9-5.3,3-5.4.1"/>
        <path class="cls-2" d="M135.2,57.1c-.3-2.9,4.7-2.9,4.9-.2.1,2.5-4.8,2.9-4.9.2"/>
        <path class="cls-2" d="M128,57.6c-.3-2.9,5.1-3.2,5.3-.4.2,2.9-5.1,3.3-5.3.4"/>
        <path class="cls-2" d="M120.8,58.3c-.3-3.3,5.2-3.8,5.5-.5.2,3-5.2,3.5-5.5.5"/>
        <path class="cls-2" d="M114.5,59c-.5-2.9,4.1-3.4,4.3-.5.4,2.8-4.1,3.4-4.3.5"/>
        <path class="cls-2" d="M107.3,60c-.3-2.4,4.1-3.1,4.4-.6.3,2.6-4,3.2-4.4.6"/>
        <path class="cls-2" d="M100,61.1c-.5-3.2,4.8-4.1,5.3-.8.5,2.8-4.9,3.5-5.3.8"/>
        <path class="cls-2" d="M93.7,62.2c-.6-2.6,4-3.2,4.4-.7.5,2.7-4,3.6-4.4.7"/>
        <path class="cls-2" d="M86.2,63.5c-.6-3,4.5-4.2,4.9-.9.7,3.3-4.4,4-4.9.9"/>
        <path class="cls-2" d="M79.7,64.8c-.7-2.7,4.2-3.5,4.7-.9.6,2.7-4.2,3.8-4.7.9"/>
        <path class="cls-2" d="M73.2,66.1c-.5-2.3,3.7-3.5,4.2-.9.6,2.5-3.7,3.1-4.2.9"/>
        <path class="cls-2" d="M65.6,67.8c-.8-3,4.5-4.2,5.1-1.1.8,3.2-4.4,4.4-5.1,1.1"/>
        <path class="cls-2" d="M58.1,69.6c-.7-3,4.6-4.4,5.3-1.3.7,2.8-4.7,4-5.3,1.3"/>
        <path class="cls-2" d="M51.8,71.1c-.8-2.8,4.1-3.8,4.7-1.2.6,2.4-4.2,3.8-4.7,1.2"/>
        <path class="cls-2" d="M399.7,44.2c.4,1.4-.7,2.9-2.2,2.6-1.8-.3-2.4-2.8-1-3.9,1.2-1,2.9-.1,3.2,1.4"/>
        <path class="cls-2" d="M405.1,42.9c.4,1.6-.9,3.7-2.7,2.8-1.5-.7-2-3-.7-4.1,1.2-1.1,3.1-.1,3.4,1.3"/>
        <path class="cls-2" d="M409.7,41.7c.3,1,0,2.4-1.1,2.6-2.1.2-3-3.5-1.2-4.3,1.1-.4,2.1.7,2.3,1.7"/>
        <path class="cls-2" d="M415.1,40.4c.5,2.4-2.4,3.3-3.3.9-.3-.9,0-2.1,1-2.4,1-.3,2,.6,2.2,1.5"/>
        <path class="cls-2" d="M420.6,39c.5,2.1-1.5,4.3-3.3,2.3-1-1-1.1-3,.3-3.7,1.2-.6,2.6,0,2.9,1.4"/>
        <path class="cls-2" d="M425.3,37.7c.4,1.1-.3,2.5-1.6,2.4-1.4,0-2.1-1.7-1.6-2.9.7-2,2.8-1.2,3.2.5"/>
        <path class="cls-2" d="M423.7,47c-.5-1.8,1.5-3.6,3.3-3.2,0,0,0,0,0,0,.4,0,.7.2,1,.5,0,0,0,0,0,0,1.3,1,1.3,3.2-.1,4.1-1.4.9-3.7.2-4.2-1.4"/>
        <path class="cls-2" d="M416.9,48.8c-.5-1.8,1.5-2.9,3.1-2.7,2.1.2,2.5,2.5.9,3.7-1.3,1-3.5.8-3.9-1"/>
        <path class="cls-2" d="M410,50.5c-.3-1.1.8-2.2,1.8-2.5,1.1-.4,2.4.2,2.6,1.3.6,2.5-3.7,3.3-4.4,1.1"/>
        <path class="cls-2" d="M402.1,52.6c-.5-1.9,1.5-3.3,3.2-3.1,2.2.2,3,2.7,1.4,4.2-1.4,1.4-4.2.9-4.7-1.1"/>
        <path class="cls-2" d="M394.1,54.5c-.4-1.9,1.9-3.5,3.7-3.1,2.1.4,2.8,2.8.9,4-1.4.9-4,.9-4.5-1"/>
        <path class="cls-2" d="M387.3,56.1c-.4-1.8,1.6-3,3.2-2.7,2,.3,2.6,2.4.8,3.6-1.2.9-3.6.9-4-.9"/>
        <path class="cls-2" d="M45.9,72.6c-.4-1.5.8-2.9,2.3-2.7,1.9.2,2.5,2.8,1.1,3.9-1.2,1.1-3.1.3-3.4-1.2"/>
        <path class="cls-2" d="M40.2,74.1c-.5-1.7,1-3.7,2.8-2.9,1.6.7,2.2,2.9.8,4.1-1.2,1.1-3.2.3-3.6-1.2"/>
        <path class="cls-2" d="M35.3,75.4c-.7-2.9,2.6-3.8,3.4-.9.7,2.9-2.6,3.8-3.4.9"/>
        <path class="cls-2" d="M29.6,76.9c-.5-2.3,2.5-3.3,3.4-1.1.4.9,0,2.2-1.1,2.6-1,.3-2.1-.5-2.4-1.5"/>
        <path class="cls-2" d="M23.8,78.5c-.5-2,1.4-4.2,3.3-2.5,1.2,1,1.4,3-.1,3.8-1.2.7-2.9.1-3.2-1.3"/>
        <path class="cls-2" d="M18.8,79.9c-.4-1.2.4-2.5,1.8-2.4,1.4,0,2.1,1.7,1.6,2.9-.8,2-3,1.3-3.4-.5"/>
        <path class="cls-2" d="M20.3,70.1c.5,1.7-1.2,3.5-2.9,3.2-2-.3-2.7-3.1-1.3-4.4,1.3-1.3,3.8-.5,4.2,1.2"/>
        <path class="cls-2" d="M26.7,68.4c.5,1.7-1.3,2.9-2.9,2.6-2-.2-2.4-2.5-.9-3.7,1.3-1,3.3-.7,3.7,1"/>
        <path class="cls-2" d="M33.1,66.7c.3,1.1-.7,2.2-1.7,2.5-1.1.3-2.2-.4-2.4-1.5-.5-2.4,3.4-3.2,4.2-1"/>
        <path class="cls-2" d="M40.6,64.8c.5,1.7-1.2,3.2-2.9,3.1-2.2-.1-3-2.7-1.6-4.2,1.4-1.5,4-.8,4.4,1.1"/>
        <path class="cls-2" d="M48.2,62.9c.4,1.8-1.7,3.5-3.4,3-2.1-.5-2.7-2.9-.8-4.1,1.3-.9,3.7-.7,4.2,1.1"/>
        <path class="cls-2" d="M54.5,61.3c.4,1.7-1.4,3-3,2.7-1.9-.4-2.5-2.4-.9-3.5,1.2-.9,3.4-.8,3.8.9"/>
        <path class="cls-5" d="M13.2,61.5c.4,1.2-.3,2.4-1.4,2.8-1.2.4-2.4-.2-2.8-1.4-.4-1.2.3-2.5,1.5-2.8,1.2-.4,2.4.2,2.8,1.5"/>
        <path class="cls-5" d="M19.1,59.8c.4,1.2-.4,2.7-1.5,3.1-1.2.3-2.6-.5-3-1.8-.4-1.2.4-2.6,1.6-2.9,1.2-.4,2.5.3,2.9,1.6"/>
        <path class="cls-5" d="M24.3,58.3c.3,1.1,0,2.4-1.2,2.7-1.1.3-2.1-.6-2.4-1.7-.3-1.1.1-2.3,1.2-2.6,1.1-.3,2,.5,2.4,1.6"/>
        <path class="cls-5" d="M30.2,56.7c.3,1-.4,2.1-1.3,2.3s-2-.3-2.3-1.4c-.3-1,.3-2.2,1.3-2.5s2.1.5,2.4,1.5"/>
        <path class="cls-5" d="M36.3,55.1c.3,1.3-.4,2.8-1.6,3.1-1.2.3-2.5-.7-2.8-1.9-.3-1.3.4-2.3,1.6-2.6,1.2-.3,2.5.2,2.8,1.5"/>
        <path class="cls-5" d="M41.6,53.8c.3,1.1-.3,2.1-1.3,2.3-1,.3-2.1-.3-2.4-1.4-.3-1.1.3-2.3,1.4-2.6,1-.3,2,.6,2.3,1.7"/>
        <path class="cls-5" d="M47.8,52.3c.3,1.3-.4,2.7-1.6,3-1.2.3-2.2-.7-2.5-1.9-.3-1.3.1-2.7,1.3-3,1.2-.3,2.5.7,2.8,2"/>
        <path class="cls-5" d="M53.3,51c.3,1.2-.3,2.2-1.4,2.4-1.1.3-2.2-.3-2.5-1.5-.3-1.2.4-2.3,1.5-2.6,1.1-.3,2.1.5,2.4,1.7"/>
        <path class="cls-5" d="M58.8,49.7c.2,1-.5,2.1-1.5,2.3s-1.8-.5-2.1-1.5c-.2-1,.2-2,1.2-2.2,1-.2,2.1.3,2.3,1.4"/>
        <path class="cls-5" d="M65.2,48.3c.3,1.3-.4,2.6-1.6,2.8-1.2.3-2.4-.5-2.7-1.9-.3-1.3.4-2.7,1.6-3,1.2-.3,2.4.7,2.7,2"/>
        <path class="cls-5" d="M71.6,46.8c.3,1.3-.6,2.6-1.8,2.9-1.2.3-2.4-.6-2.7-1.9-.3-1.3.5-2.4,1.7-2.6,1.2-.3,2.5.4,2.8,1.6"/>
        <path class="cls-5" d="M77,45.7c.2,1.2-.4,2.3-1.5,2.5-1.1.2-2.3-.5-2.6-1.7-.2-1.2.6-2.1,1.7-2.4,1.1-.2,2.1.4,2.3,1.5"/>
        <path class="cls-5" d="M83,44.4c.3,1.3-.5,2.3-1.7,2.6-1.2.2-2.4-.4-2.7-1.7-.3-1.3.6-2.4,1.8-2.7,1.2-.2,2.3.5,2.6,1.8"/>
        <path class="cls-5" d="M89,43.3c.2,1.3-.6,2.7-1.8,2.9-1.2.2-2.5-.7-2.8-2-.3-1.3.7-2.5,1.9-2.8,1.2-.2,2.5.6,2.7,1.8"/>
        <path class="cls-5" d="M94.3,42.2c.2,1.2-.3,2.4-1.4,2.6-1.1.2-2-.7-2.3-1.9-.2-1.2.3-2.3,1.4-2.5,1.1-.2,2,.7,2.2,1.8"/>
        <path class="cls-5" d="M100.4,41.1c.2,1-.6,2-1.5,2.2-1,.2-2-.5-2.2-1.6-.2-1,.5-2.2,1.5-2.3,1-.2,2,.6,2.2,1.7"/>
        <path class="cls-5" d="M106.6,40.1c.2,1.3-.7,2.7-1.9,2.9-1.2.2-2.4-.9-2.6-2.2-.2-1.3.6-2.3,1.9-2.5,1.2-.2,2.4.4,2.6,1.7"/>
        <path class="cls-5" d="M111.9,39.3c.2,1.1-.5,2-1.5,2.2-1,.2-2.1-.5-2.2-1.6-.2-1.1.5-2.3,1.6-2.5,1.1-.2,2,.8,2.1,1.9"/>
        <path class="cls-5" d="M118.3,38.5c.1,1.3-.7,2.6-1.9,2.8-1.2.2-2.1-.9-2.3-2.2-.2-1.3.4-2.7,1.7-2.8,1.2-.2,2.4,1,2.6,2.3"/>
        <path class="cls-5" d="M123.9,37.9c.1,1.2-.6,2.1-1.7,2.2-1.1.1-2.2-.6-2.3-1.8-.1-1.2.7-2.3,1.9-2.4,1.2-.1,2,.8,2.1,2"/>
        <path class="cls-5" d="M129.5,37.5c0,1.1-.8,2-1.8,2.1-1,0-1.7-.8-1.8-1.8,0-1,.5-1.9,1.5-2,1,0,2,.7,2.1,1.7"/>
        <path class="cls-5" d="M136.1,37.1c0,1.4-.8,2.4-2.1,2.5-1.3,0-2.3-.9-2.3-2.3,0-1.3.8-2.6,2.1-2.7,1.3,0,2.3,1.1,2.3,2.5"/>
        <path class="cls-5" d="M142.6,36.9c0,1.3-1.1,2.5-2.3,2.5-1.2,0-2.3-1-2.3-2.3,0-1.3,1-2.2,2.2-2.3,1.2,0,2.4.8,2.4,2.1"/>
        <path class="cls-5" d="M148.2,36.8c0,1.2-.8,2.2-1.9,2.2-1.1,0-2.2-.9-2.2-2.1,0-1.2,1-2,2.1-2,1.1,0,2,.8,2,2"/>
        <path class="cls-5" d="M154.4,36.8c0,1.3-1,2.2-2.2,2.2-1.2,0-2.3-.9-2.3-2.2,0-1.3,1.1-2.3,2.3-2.3,1.2,0,2.2,1,2.2,2.3"/>
        <path class="cls-5" d="M160.4,36.9c0,1.3-1.2,2.5-2.4,2.5-1.2,0-2.3-1.3-2.3-2.6,0-1.3,1.2-2.3,2.4-2.3,1.2,0,2.3,1.1,2.3,2.4"/>
        <path class="cls-5" d="M165.8,37.1c0,1.2-.8,2.2-1.9,2.2-1.1,0-1.8-1.1-1.8-2.3,0-1.2.8-2.2,2-2.2,1.1,0,1.8,1.1,1.8,2.3"/>
        <path class="cls-5" d="M172,37.4c0,1.1-1,1.8-2,1.8-1,0-1.8-.9-1.8-2,0-1.1,1-2,2-2,1,0,1.8,1.1,1.8,2.1"/>
        <path class="cls-5" d="M178.3,37.8c-.1,1.3-1.3,2.5-2.5,2.4-1.2,0-2.1-1.4-2-2.7,0-1.3,1.1-2.1,2.4-2,1.2,0,2.3,1,2.2,2.3"/>
        <path class="cls-5" d="M183.7,38.2c-.1,1.1-.9,1.9-2,1.8-1.1,0-1.9-1-1.8-2.1,0-1.1,1.1-2.1,2.1-2,1.1,0,1.7,1.2,1.6,2.3"/>
        <path class="cls-5" d="M190.1,39c-.2,1.3-1.3,2.3-2.5,2.2-1.2-.1-1.8-1.4-1.7-2.7.1-1.3,1-2.5,2.3-2.4,1.2.1,2.1,1.5,2,2.8"/>
        <path class="cls-5" d="M195.6,39.7c-.2,1.2-1.1,1.9-2.2,1.7-1.1-.1-2-1.1-1.8-2.3.2-1.2,1.2-2,2.4-1.9,1.1.2,1.8,1.2,1.6,2.4"/>
        <path class="cls-5" d="M201.2,40.7c-.2,1-1.3,1.7-2.2,1.6-1-.2-1.5-1.1-1.3-2.2.2-1,1-1.7,1.9-1.6,1,.2,1.8,1.1,1.6,2.2"/>
        <path class="cls-5" d="M207.6,41.9c-.3,1.3-1.4,2.2-2.7,1.9-1.2-.3-1.9-1.5-1.7-2.8.3-1.3,1.4-2.4,2.7-2.1,1.3.3,1.9,1.7,1.6,3"/>
        <path class="cls-5" d="M214,43.5c-.3,1.3-1.8,2.1-2.9,1.8-1.2-.3-1.9-1.6-1.6-2.9.3-1.3,1.5-1.9,2.8-1.6,1.2.3,2,1.4,1.7,2.7"/>
        <path class="cls-5" d="M219.4,44.6c-.2,1.2-1.2,2-2.3,1.8-1.1-.3-2-1.5-1.7-2.6.3-1.2,1.4-1.7,2.5-1.4,1.1.2,1.7,1.1,1.5,2.3"/>
        <path class="cls-5" d="M225.5,45.6c-.2,1.3-1.2,2.1-2.5,1.9-1.2-.2-2.2-1.3-1.9-2.5.2-1.3,1.4-2,2.6-1.9,1.2.1,2,1.2,1.9,2.5"/>
        <path class="cls-5" d="M231.6,46.2c-.1,1.3-1.4,2.4-2.6,2.3-1.2-.1-2.2-1.5-2.1-2.8.2-1.3,1.4-2.2,2.6-2,1.2.1,2.2,1.2,2.1,2.5"/>
        <path class="cls-5" d="M236.9,46.7c0,1.2-.9,2.2-2,2.1-1.1,0-1.8-1.3-1.7-2.4.1-1.2,1-2.1,2-2,1.1.1,1.7,1.2,1.6,2.4"/>
        <path class="cls-5" d="M243.1,47.1c0,1.1-1,1.8-2,1.8-1,0-1.8-1-1.8-2,0-1.1,1-2,2-1.9,1,0,1.8,1.1,1.8,2.2"/>
        <path class="cls-5" d="M249.3,47.4c0,1.3-1.2,2.5-2.4,2.5-1.2,0-2.2-1.4-2.1-2.7,0-1.3,1.1-2.1,2.3-2,1.2,0,2.3.9,2.2,2.2"/>
        <path class="cls-5" d="M254.8,47.5c0,1.1-.8,1.9-1.9,1.9-1.1,0-1.9-.9-1.9-2,0-1.1,1-2.2,2-2.1,1.1,0,1.8,1.1,1.7,2.2"/>
        <path class="cls-5" d="M261.2,47.7c0,1.3-1.1,2.5-2.3,2.5-1.2,0-2-1.3-1.9-2.6,0-1.3.8-2.5,2.1-2.5,1.2,0,2.2,1.3,2.2,2.6"/>
        <path class="cls-5" d="M266.8,47.8c0,1.2-.8,2-2,2-1.1,0-2.1-.8-2.1-2.1,0-1.2,1-2.2,2.1-2.1,1.1,0,1.9,1,1.9,2.2"/>
        <path class="cls-5" d="M272.4,47.9c0,1.1-1,1.9-2,1.9-1,0-1.7-.9-1.6-2,0-1.1.7-1.8,1.7-1.8,1,0,1.9.8,1.9,1.9"/>
        <path class="cls-5" d="M279,47.9c0,1.4-.9,2.4-2.2,2.4-1.3,0-2.2-1.1-2.2-2.4,0-1.4,1-2.6,2.2-2.6,1.3,0,2.2,1.2,2.2,2.6"/>
        <path class="cls-5" d="M285.5,47.8c0,1.3-1.1,2.4-2.3,2.5-1.2,0-2.3-1.1-2.3-2.4,0-1.3,1-2.2,2.2-2.2,1.2,0,2.4.9,2.4,2.2"/>
        <path class="cls-5" d="M291.1,47.7c0,1.2-.8,2.2-1.9,2.2-1.1,0-2.2-.9-2.2-2.1,0-1.2,1-2,2.1-2,1.1,0,2,.7,2,1.9"/>
        <path class="cls-5" d="M297.3,47.6c0,1.3-.9,2.2-2.1,2.2-1.2,0-2.3-.9-2.3-2.2,0-1.3,1-2.3,2.2-2.3,1.2,0,2.2.9,2.2,2.2"/>
        <path class="cls-5" d="M303.3,47.5c0,1.3-1,2.6-2.3,2.6-1.2,0-2.4-1.2-2.4-2.5,0-1.3,1.1-2.4,2.3-2.4,1.2,0,2.4,1,2.4,2.3"/>
        <path class="cls-5" d="M308.7,47.2c0,1.2-.6,2.3-1.7,2.3-1.1,0-1.9-1-2-2.2,0-1.2.7-2.2,1.8-2.3,1.1,0,1.9,1,1.9,2.1"/>
        <path class="cls-5" d="M314.9,46.9c0,1.1-.8,2-1.8,2-1,0-1.9-.8-2-1.8,0-1.1.8-2.1,1.8-2.1,1,0,1.9.9,2,1.9"/>
        <path class="cls-5" d="M321.1,46.5c.1,1.3-.9,2.7-2.1,2.8-1.2,0-2.3-1.1-2.4-2.4,0-1.3.8-2.2,2.1-2.3s2.4.6,2.5,1.9"/>
        <path class="cls-5" d="M326.5,45.9c.1,1.1-.5,2-1.6,2.1-1.1.1-2-.6-2.1-1.7-.1-1.1.7-2.3,1.7-2.4s1.9.9,2,2"/>
        <path class="cls-5" d="M332.9,45.1c.2,1.3-.7,2.6-1.9,2.8s-2.1-.9-2.3-2.2c-.2-1.3.5-2.7,1.7-2.8,1.2-.2,2.4,1,2.6,2.3"/>
        <path class="cls-5" d="M338.4,44.4c.2,1.2-.5,2.1-1.6,2.3-1.1.2-2.2-.5-2.4-1.7-.2-1.2.7-2.3,1.8-2.4,1.1-.2,2,.7,2.2,1.9"/>
        <path class="cls-5" d="M344,43.6c.2,1-.7,2.1-1.6,2.2-1,.2-1.8-.7-1.9-1.7-.2-1,.4-1.9,1.4-2.1,1-.2,2,.5,2.2,1.5"/>
        <path class="cls-5" d="M350.5,42.5c.2,1.3-.5,2.5-1.8,2.7-1.3.2-2.4-.7-2.6-2-.2-1.3.5-2.7,1.8-2.9,1.3-.2,2.4.9,2.6,2.2"/>
        <path class="cls-5" d="M357,41.4c.2,1.3-.7,2.6-1.9,2.8-1.2.2-2.4-.7-2.6-2-.2-1.3.7-2.3,1.9-2.5,1.2-.2,2.5.5,2.7,1.8"/>
        <path class="cls-5" d="M362.4,40.4c.2,1.2-.4,2.3-1.5,2.5-1.1.2-2.3-.6-2.5-1.7-.2-1.2.7-2.1,1.8-2.3s2.1.4,2.3,1.6"/>
        <path class="cls-5" d="M368.5,39.3c.2,1.3-.5,2.3-1.7,2.6-1.2.2-2.4-.4-2.6-1.7-.2-1.3.6-2.4,1.8-2.6,1.2-.2,2.3.5,2.6,1.8"/>
        <path class="cls-5" d="M374.5,38.1c.3,1.3-.6,2.7-1.8,2.9-1.2.2-2.6-.8-2.8-2-.2-1.3.7-2.5,1.9-2.7,1.2-.2,2.5.6,2.7,1.8"/>
        <path class="cls-5" d="M379.7,37.1c.2,1.1-.3,2.4-1.3,2.6-1.1.2-2.1-.7-2.3-1.9-.2-1.2.3-2.3,1.4-2.5,1.1-.2,2,.7,2.2,1.8"/>
        <path class="cls-5" d="M385.8,35.8c.2,1-.5,2.1-1.5,2.3-1,.2-2-.4-2.2-1.5-.2-1,.4-2.2,1.4-2.4,1-.2,2,.6,2.3,1.6"/>
        <path class="cls-5" d="M391.9,34.5c.3,1.3-.5,2.8-1.7,3-1.2.3-2.5-.8-2.7-2-.3-1.3.5-2.3,1.7-2.5,1.2-.3,2.4.3,2.7,1.6"/>
        <path class="cls-5" d="M397.2,33.3c.3,1.1-.3,2.1-1.3,2.3-1,.2-2.1-.4-2.3-1.5s.4-2.3,1.4-2.5c1-.2,2,.6,2.3,1.7"/>
        <path class="cls-5" d="M403.5,31.8c.3,1.3-.4,2.7-1.6,2.9-1.2.3-2.2-.7-2.5-2-.3-1.3.2-2.7,1.4-3,1.2-.3,2.5.7,2.8,2"/>
        <path class="cls-5" d="M408.9,30.5c.3,1.2-.3,2.2-1.4,2.4-1.1.3-2.2-.3-2.5-1.5-.3-1.2.4-2.3,1.5-2.6,1.1-.3,2.1.5,2.4,1.7"/>
        <path class="cls-5" d="M414.4,29.2c.3,1-.5,2.1-1.4,2.4-1,.2-1.8-.5-2.1-1.5-.3-1,.2-2,1.2-2.2,1-.2,2.1.3,2.3,1.3"/>
        <path class="cls-5" d="M420.7,27.5c.3,1.3-.3,2.6-1.5,2.9-1.2.3-2.4-.5-2.8-1.8-.3-1.3.3-2.7,1.5-3,1.2-.3,2.4.6,2.8,1.9"/>
        <path class="cls-5" d="M427.1,25.8c.3,1.3-.5,2.7-1.6,3-1.2.3-2.5-.5-2.8-1.8-.3-1.3.4-2.4,1.6-2.7,1.2-.3,2.5.3,2.9,1.5"/>
        <path class="cls-5" d="M438.5,54c.3,1.1-.2,2.3-1.3,2.6-1.1.3-2.4-.3-2.7-1.5-.3-1.1.5-2.2,1.6-2.5,1.1-.3,2.1.2,2.4,1.4"/>
        <path class="cls-5" d="M19.1,90.1c.4,1.2-.4,2.7-1.5,3.1-1.2.3-2.6-.5-3-1.8-.4-1.2.4-2.6,1.6-2.9,1.2-.4,2.5.3,2.9,1.6"/>
        <path class="cls-5" d="M24.3,88.7c.3,1.1,0,2.4-1.2,2.7-1.1.3-2.1-.5-2.4-1.7-.3-1.1.1-2.3,1.2-2.6,1.1-.3,2.1.5,2.4,1.6"/>
        <path class="cls-5" d="M30.3,87.1c.3,1-.4,2.1-1.3,2.3-1,.3-2-.3-2.3-1.4-.3-1,.3-2.2,1.3-2.5,1-.3,2.1.5,2.4,1.5"/>
        <path class="cls-5" d="M36.4,85.5c.3,1.3-.4,2.8-1.6,3.1-1.2.3-2.5-.7-2.8-1.9-.3-1.3.4-2.3,1.6-2.6,1.2-.3,2.5.2,2.8,1.5"/>
        <path class="cls-5" d="M41.7,84.1c.3,1.1-.3,2.1-1.3,2.3-1,.3-2.1-.3-2.4-1.4-.3-1.1.3-2.3,1.4-2.6,1-.3,2,.6,2.3,1.7"/>
        <path class="cls-5" d="M47.9,82.6c.3,1.3-.4,2.7-1.6,3-1.2.3-2.2-.7-2.5-1.9-.3-1.3.1-2.7,1.3-3,1.2-.3,2.5.7,2.8,2"/>
        <path class="cls-5" d="M53.4,81.3c.3,1.2-.3,2.2-1.4,2.4-1.1.3-2.2-.3-2.5-1.5-.3-1.2.4-2.3,1.5-2.6,1.1-.3,2.1.5,2.4,1.7"/>
        <path class="cls-5" d="M58.9,80.1c.2,1-.5,2.1-1.5,2.3-1,.2-1.8-.5-2.1-1.5-.2-1,.2-2,1.2-2.2,1-.2,2.1.3,2.3,1.4"/>
        <path class="cls-5" d="M65.3,78.6c.3,1.3-.4,2.6-1.6,2.8-1.2.3-2.4-.5-2.7-1.9-.3-1.3.4-2.7,1.6-3,1.3-.3,2.4.7,2.7,2"/>
        <path class="cls-5" d="M71.7,77.2c.3,1.3-.6,2.6-1.8,2.9-1.2.3-2.4-.6-2.7-1.9-.3-1.3.5-2.4,1.7-2.6,1.2-.3,2.5.4,2.8,1.6"/>
        <path class="cls-5" d="M77.2,76c.2,1.2-.4,2.3-1.5,2.5-1.1.2-2.3-.5-2.6-1.7-.2-1.2.6-2.1,1.7-2.4,1.1-.2,2.1.4,2.3,1.5"/>
        <path class="cls-5" d="M83.2,74.8c.3,1.3-.5,2.3-1.7,2.6-1.2.2-2.4-.4-2.7-1.7-.3-1.3.6-2.4,1.8-2.7,1.2-.2,2.3.5,2.6,1.8"/>
        <path class="cls-5" d="M89.2,73.6c.2,1.3-.6,2.7-1.8,2.9-1.2.2-2.5-.7-2.8-2-.3-1.3.7-2.5,1.9-2.8,1.2-.2,2.5.6,2.7,1.8"/>
        <path class="cls-5" d="M94.5,72.6c.2,1.2-.3,2.4-1.4,2.6-1.1.2-2-.7-2.3-1.9-.2-1.2.3-2.3,1.4-2.5,1.1-.2,2,.7,2.2,1.8"/>
        <path class="cls-5" d="M100.6,71.5c.2,1-.6,2-1.5,2.2-1,.2-2-.5-2.2-1.6-.2-1,.5-2.2,1.5-2.3,1-.2,2,.6,2.2,1.7"/>
        <path class="cls-5" d="M106.9,70.5c.2,1.3-.7,2.7-1.9,2.9-1.2.2-2.4-.9-2.6-2.2-.2-1.3.6-2.3,1.9-2.5,1.2-.2,2.4.4,2.6,1.7"/>
        <path class="cls-5" d="M112.2,69.6c.2,1.1-.5,2-1.5,2.2-1.1.2-2.1-.5-2.2-1.6-.2-1.1.6-2.3,1.6-2.5,1.1-.2,2,.8,2.1,1.9"/>
        <path class="cls-5" d="M118.6,68.8c.1,1.3-.7,2.6-1.9,2.7-1.2.2-2.1-.9-2.3-2.2-.2-1.3.4-2.7,1.7-2.8,1.2-.2,2.4,1,2.6,2.3"/>
        <path class="cls-5" d="M124.2,68.3c0,1.2-.6,2.1-1.7,2.2-1.1.1-2.2-.6-2.3-1.8-.1-1.2.7-2.3,1.9-2.4,1.2-.1,2,.8,2.1,2"/>
        <path class="cls-5" d="M129.8,67.9c0,1.1-.9,2-1.8,2-1,0-1.7-.8-1.8-1.8,0-1,.5-1.9,1.5-2,1,0,2,.7,2.1,1.8"/>
        <path class="cls-5" d="M136.4,67.7c0,1.4-.9,2.4-2.2,2.4-1.3,0-2.2-1-2.3-2.3,0-1.3.9-2.6,2.2-2.7,1.3,0,2.3,1.2,2.3,2.6"/>
        <path class="cls-5" d="M143,67.7c0,1.3-1.2,2.4-2.4,2.4-1.2,0-2.2-1.1-2.3-2.4,0-1.3,1-2.2,2.3-2.2,1.2,0,2.4.9,2.4,2.2"/>
        <path class="cls-5" d="M148.6,67.8c0,1.2-.9,2.1-2,2.1-1.1,0-2.1-1-2.1-2.2,0-1.2,1.1-1.9,2.2-1.9,1.1,0,1.9.8,1.9,2"/>
        <path class="cls-5" d="M154.8,68.2c0,1.3-1.1,2.1-2.3,2.1-1.2,0-2.2-1-2.2-2.3s1.2-2.2,2.4-2.1c1.2,0,2.1,1.1,2.1,2.4"/>
        <path class="cls-5" d="M160.9,68.6c-.1,1.3-1.3,2.4-2.5,2.3-1.2,0-2.2-1.4-2.2-2.7,0-1.3,1.3-2.2,2.5-2.2,1.2,0,2.3,1.2,2.2,2.5"/>
        <path class="cls-5" d="M166.2,69.1c-.1,1.2-1,2.2-2,2.1-1.1-.1-1.8-1.3-1.6-2.4.1-1.2,1-2.1,2.1-2,1.1.1,1.7,1.2,1.6,2.4"/>
        <path class="cls-5" d="M172.4,69.8c-.1,1-1.1,1.8-2.1,1.7-1-.1-1.8-1.1-1.6-2.1.1-1,1.1-1.9,2.1-1.8,1,.1,1.8,1.2,1.6,2.2"/>
        <path class="cls-5" d="M178.6,70.6c-.2,1.3-1.4,2.4-2.6,2.2-1.2-.2-2-1.5-1.9-2.8.2-1.3,1.3-2,2.5-1.8,1.2.2,2.2,1.1,2,2.4"/>
        <path class="cls-5" d="M184,71.4c-.2,1.1-1,1.8-2.1,1.7-1.1-.2-1.8-1.1-1.7-2.2.2-1.1,1.2-2,2.3-1.9,1.1.2,1.7,1.3,1.5,2.4"/>
        <path class="cls-5" d="M190.4,72.4c-.2,1.3-1.4,2.3-2.6,2.1-1.2-.2-1.8-1.5-1.6-2.8.2-1.3,1.2-2.4,2.4-2.2,1.2.2,2,1.6,1.8,2.9"/>
        <path class="cls-5" d="M195.9,73.3c-.2,1.2-1.1,1.9-2.2,1.7-1.1-.2-1.9-1.2-1.7-2.3.2-1.2,1.3-2,2.4-1.8,1.1.2,1.7,1.3,1.5,2.5"/>
        <path class="cls-5" d="M201.5,74.3c-.2,1-1.3,1.7-2.3,1.6-1-.2-1.5-1.2-1.3-2.2.2-1,1-1.7,2-1.5,1,.2,1.8,1.1,1.6,2.2"/>
        <path class="cls-5" d="M208,75.5c-.2,1.3-1.4,2.2-2.6,2-1.3-.2-2-1.4-1.8-2.8.2-1.3,1.4-2.4,2.7-2.1,1.3.2,2,1.6,1.7,2.9"/>
        <path class="cls-5" d="M214.4,76.6c-.2,1.3-1.5,2.2-2.8,2-1.2-.2-2-1.5-1.8-2.8.2-1.3,1.4-2,2.6-1.8,1.2.2,2.2,1.3,2,2.6"/>
        <path class="cls-5" d="M219.9,77.5c-.2,1.2-1.2,2-2.3,1.8-1.1-.2-2-1.3-1.8-2.5.2-1.2,1.4-1.8,2.5-1.6,1.1.2,1.8,1.1,1.6,2.3"/>
        <path class="cls-5" d="M226,78.5c-.2,1.3-1.3,2-2.5,1.8-1.2-.2-2.1-1.2-1.9-2.5.2-1.3,1.4-2.1,2.6-1.9s2,1.3,1.8,2.6"/>
        <path class="cls-5" d="M232.1,79.4c-.2,1.3-1.5,2.3-2.7,2.2-1.2-.2-2.2-1.6-2-2.8.2-1.3,1.5-2.2,2.7-2,1.2.2,2.2,1.4,2,2.7"/>
        <path class="cls-5" d="M237.4,80.1c-.2,1.2-1,2.2-2.1,2-1.1-.2-1.7-1.4-1.5-2.5.2-1.2,1.1-2.1,2.2-1.9,1.1.2,1.7,1.3,1.5,2.4"/>
        <path class="cls-5" d="M243.5,80.9c-.1,1-1.1,1.8-2.1,1.7-1-.1-1.8-1.1-1.6-2.1.1-1,1.1-1.9,2.1-1.8,1,.1,1.7,1.2,1.6,2.3"/>
        <path class="cls-5" d="M249.8,81.7c-.1,1.3-1.4,2.4-2.6,2.3-1.2-.1-2.1-1.5-1.9-2.8.2-1.3,1.2-2,2.5-1.9,1.2.1,2.2,1.1,2.1,2.4"/>
        <path class="cls-5" d="M255.2,82.2c-.1,1.1-.9,1.9-2,1.8-1.1-.1-1.9-1-1.8-2.2.1-1.1,1.1-2.1,2.2-2,1.1,0,1.7,1.2,1.6,2.3"/>
        <path class="cls-5" d="M261.6,82.8c0,1.3-1.2,2.4-2.5,2.3-1.2-.1-1.9-1.4-1.8-2.7.1-1.3,1-2.5,2.2-2.4,1.2.1,2.1,1.5,2,2.8"/>
        <path class="cls-5" d="M267.2,83.1c0,1.2-.9,2-2.1,1.9-1.2,0-2.1-1-2-2.2,0-1.2,1.1-2.1,2.2-2s1.9,1.1,1.8,2.3"/>
        <path class="cls-5" d="M272.9,83.5c0,1.1-1,1.9-2.1,1.9-1,0-1.6-1-1.6-2,0-1,.8-1.8,1.7-1.8,1,0,1.9.9,1.9,1.9"/>
        <path class="cls-5" d="M279.4,83.6c0,1.4-1,2.4-2.3,2.4-1.3,0-2.2-1.1-2.2-2.5,0-1.4,1-2.6,2.3-2.5,1.3,0,2.2,1.3,2.2,2.6"/>
        <path class="cls-5" d="M286,83.6c0,1.3-1.1,2.4-2.4,2.4-1.2,0-2.3-1.1-2.3-2.4s1-2.2,2.3-2.2c1.2,0,2.4.9,2.4,2.2"/>
        <path class="cls-5" d="M291.6,83.4c0,1.2-.8,2.2-1.9,2.2-1.1,0-2.2-.9-2.2-2.1,0-1.2,1-2,2.1-2,1.1,0,2,.7,2,1.9"/>
        <path class="cls-5" d="M297.7,83.1c0,1.3-.8,2.3-2,2.3-1.2,0-2.4-.8-2.4-2.1,0-1.3.9-2.3,2.1-2.4,1.2,0,2.2.8,2.3,2.1"/>
        <path class="cls-5" d="M303.8,82.5c.1,1.3-.8,2.7-2.1,2.8-1.2.1-2.5-1-2.6-2.3-.1-1.3.9-2.4,2.1-2.5,1.2,0,2.4.8,2.5,2.1"/>
        <path class="cls-5" d="M309.2,81.9c.2,1.2-.4,2.3-1.5,2.5-1.1.1-2-.9-2.1-2-.1-1.2.5-2.3,1.6-2.4,1.1-.1,1.9.8,2.1,2"/>
        <path class="cls-5" d="M315.3,80.9c.2,1-.6,2-1.6,2.2-1,.2-2-.6-2.1-1.6-.1-1,.6-2.2,1.6-2.3,1-.1,2,.7,2.2,1.7"/>
        <path class="cls-5" d="M321.5,80c.2,1.3-.7,2.7-1.9,2.9s-2.4-.9-2.6-2.2c-.2-1.3.7-2.3,1.9-2.4,1.2-.2,2.4.4,2.6,1.7"/>
        <path class="cls-5" d="M326.9,79.1c.2,1.1-.4,2.1-1.5,2.2-1.1.2-2.1-.5-2.3-1.6-.2-1.1.5-2.3,1.6-2.5,1.1-.2,2,.7,2.1,1.9"/>
        <path class="cls-5" d="M333.2,78c.2,1.3-.6,2.6-1.8,2.8-1.2.2-2.2-.9-2.4-2.1-.2-1.3.4-2.7,1.6-2.9,1.2-.2,2.4.9,2.7,2.2"/>
        <path class="cls-5" d="M338.8,77.1c.2,1.2-.4,2.1-1.6,2.3-1.1.2-2.2-.4-2.4-1.6-.2-1.2.6-2.3,1.7-2.5,1.1-.2,2.1.6,2.3,1.8"/>
        <path class="cls-5" d="M344.3,76.2c.2,1-.6,2.1-1.6,2.3-1,.2-1.8-.6-2-1.6-.2-1,.3-1.9,1.3-2.1,1-.2,2.1.5,2.2,1.5"/>
        <path class="cls-5" d="M350.8,75c.2,1.3-.5,2.5-1.8,2.8-1.3.2-2.4-.7-2.6-2-.2-1.3.5-2.7,1.7-2.9,1.3-.2,2.4.8,2.6,2.1"/>
        <path class="cls-5" d="M357.3,73.8c.2,1.3-.7,2.6-1.9,2.8-1.2.2-2.4-.7-2.7-2-.2-1.3.6-2.4,1.8-2.6,1.2-.2,2.5.5,2.7,1.7"/>
        <path class="cls-5" d="M362.8,72.7c.2,1.2-.4,2.3-1.5,2.5-1.1.2-2.3-.5-2.5-1.7-.2-1.2.7-2.1,1.8-2.3,1.1-.2,2.1.4,2.3,1.6"/>
        <path class="cls-5" d="M368.8,71.6c.3,1.3-.5,2.3-1.7,2.6-1.2.2-2.4-.4-2.7-1.7-.2-1.3.6-2.4,1.8-2.7,1.2-.2,2.3.5,2.6,1.8"/>
        <path class="cls-5" d="M374.8,70.3c.3,1.3-.6,2.7-1.8,3-1.2.3-2.6-.7-2.8-2-.3-1.3.6-2.5,1.8-2.8,1.2-.3,2.5.5,2.8,1.8"/>
        <path class="cls-5" d="M380.1,69.2c.2,1.1-.2,2.4-1.3,2.6-1.1.2-2.1-.7-2.3-1.8-.2-1.1.3-2.3,1.4-2.6,1.1-.2,2,.6,2.3,1.8"/>
        <path class="cls-5" d="M386.1,67.8c.2,1-.5,2.1-1.4,2.3-1,.2-2-.4-2.3-1.5-.2-1,.4-2.2,1.4-2.4,1-.2,2.1.6,2.3,1.6"/>
        <path class="cls-5" d="M392.3,66.4c.3,1.3-.5,2.8-1.7,3-1.2.3-2.5-.7-2.8-2-.3-1.3.5-2.3,1.7-2.6,1.2-.3,2.4.3,2.7,1.5"/>
        <path class="cls-5" d="M397.5,65.1c.3,1.1-.3,2.1-1.3,2.4-1,.3-2.1-.3-2.4-1.4-.3-1.1.4-2.3,1.4-2.6,1-.3,2,.6,2.3,1.7"/>
        <path class="cls-5" d="M403.8,63.6c.3,1.3-.4,2.7-1.6,3-1.2.3-2.3-.7-2.6-1.9-.3-1.3.1-2.7,1.3-3,1.2-.3,2.5.7,2.8,1.9"/>
        <path class="cls-5" d="M409.2,62.1c.3,1.2-.2,2.2-1.3,2.5-1.1.3-2.3-.2-2.6-1.4-.3-1.2.4-2.3,1.5-2.6,1.1-.3,2.1.4,2.4,1.6"/>
        <path class="cls-5" d="M414.6,60.6c.3,1-.4,2.1-1.3,2.4-1,.3-1.9-.4-2.1-1.4-.3-1,.1-2,1.1-2.3.9-.3,2.1.2,2.4,1.2"/>
        <path class="cls-5" d="M420.9,58.6c.4,1.3-.2,2.6-1.4,3-1.2.4-2.5-.4-2.8-1.7-.4-1.3.2-2.7,1.4-3.1,1.2-.4,2.5.5,2.9,1.8"/>
        <path class="cls-5" d="M427.2,56.6c.4,1.2-.3,2.7-1.5,3.1-1.2.4-2.5-.4-2.9-1.6-.4-1.2.3-2.4,1.5-2.8,1.2-.4,2.5.1,2.9,1.3"/>
        <path class="cls-5" d="M432.4,54.8c.4,1.1,0,2.3-1.1,2.7-1.1.4-2.4-.2-2.8-1.3-.4-1.1.3-2.2,1.4-2.6,1.1-.4,2.1,0,2.5,1.2"/>
      </g>
    </g>
  </g>
</svg>