<?xml version="1.0" encoding="UTF-8"?>
<svg xmlns="http://www.w3.org/2000/svg" version="1.1" xmlns:xlink="http://www.w3.org/1999/xlink" viewBox="0 0 141.7 141.7">
  <defs>
    <style>
      .cls-1 {
        fill: #ffcb5a;
      }

      .cls-2 {
        fill: none;
      }

      .cls-3 {
        clip-path: url(#clippath);
      }
    </style>
    <clipPath id="clippath">
      <rect class="cls-2" x="8.5" y="29.7" width="124.8" height="82.3"/>
    </clipPath>
  </defs>
  <!-- Generator: Adobe Illustrator 28.6.0, SVG Export Plug-In . SVG Version: 1.2.0 Build 709)  -->
  <g>
    <g id="Layer_1">
      <g class="cls-3">
        <path class="cls-1" d="M63.3,80.6c1.2,6.7-6.3,4.5-8.2-.9-4.6-21.6,3.4-25.4,3.4-25.4,10.4-4.7,6.3,5.9,3.9,10-2.4,4.1-.2,9.6,1,16.3M36.6,82.8c-4.3-20.4,1.7-24,1.7-24,7.2-3.1,5.3,7,3.4,9.6-2,2.7,0,4,1.7,15.2,1.7,11.2-5.7,4.2-6.7-.8M25.5,82.8c-.5,3.1-5.1-3.1-4.8-9.5.2-6.5,3.8-6.6,3.8-6.6-1.4,6.6,1.5,13,1,16.1M132.5,77.1c-9.2-1.3-10.2-3.4-10.3-3.8.4-2.1.4-4.4-.4-6.5-.3-.8-.7-1.5-1.3-2.2.3-.6,1.8-2.5,10.3-3.7.5,0,.8-.5.7-1,0-.5-.5-.8-1-.7-6.1.9-9.9,2.2-11.3,4.1-.6-.5-1.1-1-2-1.2,0,0-8-2.5-10.7,4.7-.3-1.9-1.1-3.6-2.3-5,.1,0,.3-.2.3-.4l5.7-14.3.3-.8-.8-.3s-3.7-1.5-9-10.4c-.2-.4-.8-.5-1.2-.3-.4.2-.5.8-.3,1.2,4.3,7.2,7.6,9.9,9.1,10.8l-5.4,13.5c-.6-.4-1.2-.8-2-1.1,0,0-.4,0-1-.2v-12.4l-.6-.2c-.2,0-22.5-7.5-25.7-16.7-.2-.4-.6-.7-1.1-.5-.4.2-.7.6-.5,1.1,3.2,9.2,22.5,16.2,26.2,17.5v11c-1.2,0-2.7,0-4.2.2l-3.5-8.6-.2-.7h-.7c0,.1-1.2.2-5.9-1.6-.4-.2-.9,0-1.1.5-.2.4,0,.9.5,1.1,2.7,1,4.8,1.7,6,1.9l3.3,8c-1.1.5-2,1.2-2.8,2.2-5.4-5.3-42-39.1-75.3-9.1-6.3,7.6-14.2,38.6,15.4,48.4,27.7,9.2,52.5-12.3,61.1-23.1.6,1,1.2,1.8,1.9,2.5l-3.5,8.6c-1.2.2-3.2.8-6,1.9-.4.2-.7.7-.5,1.1.1.3.5.5.8.5s.2,0,.3,0c4.7-1.8,5.8-1.8,5.8-1.8h.7c0,.1,3.7-9,3.7-9,1.4,1.1,2.9,1.6,4.3,1.8v9.3c-3.7,1.3-23,8.4-26.2,17.5-.2.4,0,.9.5,1.1,0,0,.2,0,.3,0,.4,0,.7-.2.8-.6,3.2-9.1,25.5-16.6,25.7-16.7l.6-.2v-10.5c1.5-.1,2.7-.8,3.4-1.7,0,0,0-.1.1-.2l4.8,12.2c-1.5.9-4.8,3.5-9.1,10.8-.2.4-.1.9.3,1.2.1,0,.3.1.4.1.3,0,.6-.1.7-.4,5.2-8.9,8.9-10.4,9-10.4l.8-.3-6-15c.7-1.5,1.3-3.5,1.8-5.6,1.9,6.7,9.2,6.6,11.1,5.9,1.8-.7,3.2-2.9,4.1-5.3,1.7,1.5,5.3,2.7,10.7,3.5,0,0,0,0,.1,0,.4,0,.8-.3.8-.7,0-.5-.3-.9-.7-1"/>
      </g>
    </g>
  </g>
</svg>