<?xml version="1.0" encoding="UTF-8"?>
<svg xmlns="http://www.w3.org/2000/svg" version="1.1" viewBox="0 0 141.7 141.7">
  <defs>
    <style>
      .cls-1 {
        fill: #c0573b;
      }
    </style>
  </defs>
  <!-- Generator: Adobe Illustrator 28.6.0, SVG Export Plug-In . SVG Version: 1.2.0 Build 709)  -->
  <g>
    <g id="Layer_1">
      <path class="cls-1" d="M92.9,86.5s0,0,0,0c0,0,0,0,0,0M92.7,84.3c0-.3,0-.6,0-1h0c0,.3,0,.6,0,1M92.4,81.5s0,0,0,0c0-.6-.2-1.1-.3-1.5h0c.1.4.2.9.3,1.5M89.3,77.9c-.1,0-.2,0-.3,0,0,0,0,0,0,0,.1,0,.2,0,.3,0M87.3,78.6c-.6.4-1.1.8-1.5,1.3.4-.4.9-.9,1.5-1.3h0M75.9,83.9c-.5,0-1,0-1.4.2.5,0,.9-.1,1.4-.2M71.2,88.1c0-.2,0-.5,0-.7,0,.2,0,.4,0,.7M53.2,32.7c-.8-.7-1.8-1.8-2.7-3.1.9,1.3,1.9,2.4,2.7,3.1M47.9,23.4c0-.3-.1-.7-.2-1.1,0,.4.1.7.2,1.1M45.6,27.2c.2.4.3.9.3,1.4h0c0-.5-.2-1-.3-1.4,0,0,0,0,0,0M44.9,25.6h0c0-.1-.1-.2-.2-.3,0,0,.1.2.2.3M44.7,43.6c0,0,0,.2,0,.3v.2s0-.2,0-.2c0,0,0-.2,0-.2,0,0,0,0,0,0M48.8,45.8h0c0,0,.1-.2.2-.3,0,0-.1.2-.2.3M44.5,24.9c0,0,0-.1-.1-.2,0,0,0,0,0,0,0,0,0,.1.1.2M44.3,45.9c-.1.3-.2.5-.3.7.1-.2.2-.4.3-.7h0ZM43.1,23.5s0,0,0,0c-.7-.4-1.4-.6-2-.7.6.1,1.3.3,2,.7M36.6,15.1h0M35.9,19.3c.4.2.7.5,1.1.8-.3-.3-.7-.6-1.1-.8h0ZM42.9,42.5c0,0-.1,0-.2,0,0,0,.1,0,.2,0h0M42.7,51.8c-.2.1-.5.3-.7.4.2-.1.5-.2.7-.4M40.2,40.7s0,0,0,.1h0c0,0,0,0,0-.1M61.7,77.7h0s0,0,0,0c0,0,0,0,0,0M129.2,108.4c-.3-1.4-1.5-1.8-3.3-1.9-2.7,0-6.7.8-10.8.7-4.7,0-9.5-1.3-12.7-6.5-10-15.9-1.1-37.2-14.2-46.2-13-9-11.9-5.8-18.7-11.4-6.5-5.3-11.3-9.6-14-11.7-2.6-2.1-5.1-6.2-5-9.7,0,0,2.2,1.1,3.9,1.2.9,0,1.6-.3,1.8-1.2.6-2.7-1.6-3.9-3.6-4.1-.1,0-.3,0-.4,0-1.1,0-2.1.2-2.7.2-.4,0-.7-.1-.8-.4-.2-.8,6.7.7,5.3-3.6-.4-1.1-1.2-1.5-2.2-1.6-2.9,0-7.2,3.3-7.2,3.3l-.8-.5c-2.5-1.6-5.5-2.3-8.1-2.4-3.3,0-6,1-6.5,3.1-.9,4.6,5.1,4.9,6.1,6.2,3.2,4.1,6.2,2.7,7,4.2.8,1.4,1.9,3.1.6,4-3,1.9-5.2,5.5-5.1,9.9-5.1,2.5-8.2,7.2-11.1,8.8-2.6,1.4-4.7,4.3-4.1,4.9,0,.1.2.1.3.1.5,0,.9-1,1.4-1,0,0,0,0,.1,0,.4.3-1.4,2.2-.8,2.8,0,0,.2.1.3.1.5,0,1-1,1.4-1.6.5-.4,0,.9,0,1.2-.3.5-.4,1.2-.2,1.3,0,0,.2,0,.2,0,.6.2,1.7-2.1,1.7-2.1,0,0,2.4-3,4.4-4.3,2-1.2,8.8-4.1,9.4-4.6,0,0,.5-.2.5-.2,0,0,.2-.1.3-.1,1.4-.4-2.9,4.9-7.1,7.3-2.2,1.3-6.6,2-6.9,6.7,0,.6,0,1,.5,1,.4,0,1.1-2.7,1.7-2.2,0,0,0,0,0,0,.1.3-1.7,3-.9,3.4,0,0,0,0,.1,0,.7,0,1.4-2.1,1.9-2.1h0c.4,0-1.5,2.7-.7,2.8,0,0,0,0,0,0,.8,0,2.2-1.3,3.5-3.2,1.3-2,4.7-2.9,9-4.8,3.4-1.5,6-4.9,6.4-5.7,0-.1,0-.2,0-.2,0,0,0,0,0,.2,0,1.8.1,17.4,12.7,24.3,0,0-8,8.7-5.1,21.1,2.9,12.4,6.2,14.4,2.8,17.1s-12.8,9.9-12.9,17.4c0,.7.2.9.5.9.4,0,.9-.8,1.1-1.3,0-.1,0-.2,0-.2.2,0,.4,1,.7,1,.1,0,.3-.1.5-.6.2-.4.3-.6.5-.6.3,0,.6.5.8.5.2,0,.3-.2.4-.7.5-1.9,1.8-3.9,3.8-7.6,1.7-3.3,6.4-5.1,9-6.3,2.6-1.3,3.4-2.8,1.4-7.6-2-4.8-2.7-9.3-1.9-11.5.9,3.9,6,16.2,5,18.1-2.2,6-11.6,8.6-11.7,13.8-.1.6,0,.9.1.9.6,0,1.9-1.7,1.9-1.7,0,0-.7,2,0,2,0,0,0,0,0,0,.9,0,1.7-2.2,1.7-2.2,0,0-.6,2.3.2,2.3,0,0,0,0,0,0,.6,0,1.6-1.1,4.9-6.5,3.7-5.1,9.1-5.3,9.1-7.6,0-2.3-2.9-7-2.5-10.8.4-3.8,2.9-11.3,1.2-15.1-1.2-2.8,5.2-.5,9.6-3,3.9-2.2,4.7-4.6,5.9-4.6.2,0,.4,0,.6.2,1.6,1.1-1.2,19.3,11.4,27.9,4.7,3.2,9.8,4.4,14.4,4.5,7.7.1,13.8-2.9,13.5-4.6"/>
    </g>
  </g>
</svg>