<?xml version="1.0" encoding="UTF-8"?>
<svg xmlns="http://www.w3.org/2000/svg" version="1.1" xmlns:xlink="http://www.w3.org/1999/xlink" viewBox="0 0 141.7 141.7">
  <defs>
    <style>
      .cls-1 {
        fill: none;
      }

      .cls-2 {
        fill: #373b38;
      }

      .cls-3 {
        clip-path: url(#clippath);
      }
    </style>
    <clipPath id="clippath">
      <rect class="cls-1" width="141.7" height="141.7"/>
    </clipPath>
  </defs>
  <!-- Generator: Adobe Illustrator 28.6.0, SVG Export Plug-In . SVG Version: 1.2.0 Build 709)  -->
  <g>
    <g id="Layer_1">
      <g class="cls-3">
        <path class="cls-2" d="M80,50.7c.1-.4.1-.9-.1-1.3-1.5-2.1-8.3-3.5-9.9,2.2-1.5,5.3-6.9,6.3-17,7-11.2.8-22.5,1-33,.8-5.4-.1-8.4,0-8.8,2-.7,3,3.4,3.6,3.8,5.6.3,2-2.1,3.5-1.7,5.9.5,3.3,6.3,2.4,7.7,4.3,1.2,1.6.1,3.9,2.5,5.2,8.1,4.6,38.6-7.4,43.3-2.2,5,5.6-1.1,14.6.5,21.7,1,4.2,6.8,5.6,11.4,5.3,3.5-.3,5.1-2.3,6.7-3.3,1.9-1.2,4.1-1.6,4.2-4.3.4-7.2-7.1-14.5-3.3-21.3,3.5-6.4,10.1-5.4,20.9-7.2,11.7-2,18.5-3.1,19.5-7.3,1.4-5.5,6.7-7.5,3.4-12.9-1.7-2.7,4-6.4-3.3-7.5-17-2.4-52.2,23.3-46.7,7.1"/>
      </g>
    </g>
  </g>
</svg>