<?xml version="1.0" encoding="UTF-8"?>
<svg xmlns="http://www.w3.org/2000/svg" version="1.1" xmlns:xlink="http://www.w3.org/1999/xlink" viewBox="0 0 141.7 141.7">
  <defs>
    <style>
      .cls-1 {
        fill: none;
      }

      .cls-2 {
        fill: #b44935;
      }

      .cls-3 {
        clip-path: url(#clippath);
      }
    </style>
    <clipPath id="clippath">
      <rect class="cls-1" width="141.7" height="141.7"/>
    </clipPath>
  </defs>
  <!-- Generator: Adobe Illustrator 28.6.0, SVG Export Plug-In . SVG Version: 1.2.0 Build 709)  -->
  <g>
    <g id="Layer_1">
      <g class="cls-3">
        <path class="cls-2" d="M111.7,39.7c-6.7,5.8-7.2,10.9-9.9,12.7-4,2.6-7,.7-11.8-7.3-3.9-6.5-17.1-4.8-18.4,1-1.3,5.9,9,3.5,8.7,6.7-.3,3.2-5.3,2.7-12.5,6-3.5,1.6-8.6,5.8-11.4,7.2-3,1.4-4-2.6.2-6.4,4.8-4.3.8-9.6-6.4-5.7-16.2,8.5-4.3,20.2-15.1,20.4-10.8.2-24.1,3.7-25,9.2-.9,5.9,10.1,7.6,24.3,7.5,7.2,0,14.6-1.3,15.3,1.9,1,4.6-12,7.4-10.4,12.8,1.4,4.6,14.9,2.4,20.2-4.5,4-5.1,2.6-9.3,7.8-9.2,14.3.3,21-8,25.7-9.7,3.3-1.2,7,2.4,11.6,2.9,7.5.8,16.2-7.5,13.7-12.1-2.6-4.8-11.8,3.3-14-.8-2.4-4.5,9.7-7,18.8-16.5,8.5-8.9,8.1-15.8,4.3-19.4-3.2-3-11.2-.8-15.9,3.3M120.3,50.1c-2,3.6-6.7,1.4-4.6-2.8,1.8-3.6,6.5-.8,4.6,2.8"/>
      </g>
    </g>
  </g>
</svg>